<?xml version="1.0" encoding="UTF-8"?>
<svg xmlns="http://www.w3.org/2000/svg"
     width="204" height="206"
     viewBox="0 0 204 206"
     fill="none">
  <path d="M 165.500 130.500 L 165.500 135.667 L 165.333 135.833 L 165.333 136.500 L 165.167 136.667 L 165.167 137.000 L 165.000 137.167 L 165.000 137.333 L 164.667 137.667 L 164.667 137.833 L 164.500 138.000 L 164.500 138.167 L 164.333 138.333 L 164.333 138.500 L 164.000 138.833 L 164.000 139.000 L 163.833 139.167 L 163.833 139.333 L 163.333 139.833 L 163.333 140.000 L 162.500 140.833 L 162.500 141.000 L 162.000 141.500 L 161.833 141.500 L 160.833 142.500 L 160.667 142.500 L 160.000 143.167 L 159.833 143.167 L 159.333 143.667 L 159.167 143.667 L 159.000 143.833 L 158.833 143.833 L 158.333 144.333 L 158.167 144.333 L 158.000 144.500 L 157.833 144.500 L 157.667 144.667 L 157.500 144.667 L 157.167 145.000 L 157.000 145.000 L 156.833 145.167 L 156.667 145.167 L 156.333 145.500 L 156.167 145.500 L 156.000 145.667 L 155.833 145.667 L 155.667 145.833 L 155.500 145.833 L 155.167 146.167 L 155.000 146.167 L 154.833 146.333 L 154.667 146.333 L 154.500 146.500 L 154.333 146.500 L 154.167 146.667 L 154.000 146.667 L 153.833 146.833 L 153.667 146.833 L 153.333 147.167 L 153.167 147.167 L 153.000 147.333 L 152.667 147.333 L 152.500 147.500 L 152.333 147.500 L 152.167 147.667 L 152.000 147.667 L 151.833 147.833 L 151.667 147.833 L 151.333 148.167 L 151.167 148.167 L 151.000 148.333 L 150.667 148.333 L 150.500 148.500 L 150.333 148.500 L 150.167 148.667 L 149.833 148.667 L 149.667 148.833 L 149.500 148.833 L 149.333 149.000 L 149.167 149.000 L 149.000 149.167 L 148.833 149.167 L 148.667 149.333 L 148.500 149.333 L 148.333 149.500 L 148.000 149.500 L 147.833 149.667 L 147.500 149.667 L 147.333 149.833 L 147.000 149.833 L 146.833 150.000 L 146.667 150.000 L 146.500 150.167 L 146.333 150.167 L 146.167 150.333 L 145.833 150.333 L 145.667 150.500 L 145.333 150.500 L 145.167 150.667 L 144.833 150.667 L 144.667 150.833 L 144.500 150.833 L 144.333 151.000 L 144.000 151.000 L 143.833 151.167 L 143.500 151.167 L 143.333 151.333 L 143.167 151.333 L 143.000 151.500 L 142.500 151.500 L 142.333 151.667 L 141.833 151.667 L 141.667 151.833 L 141.167 151.833 L 141.000 152.000 L 140.500 152.000 L 140.333 152.167 L 139.833 152.167 L 139.667 152.333 L 139.333 152.333 L 139.167 152.500 L 138.667 152.500 L 138.500 152.667 L 138.167 152.667 L 138.000 152.833 L 137.333 152.833 L 137.167 153.000 L 136.333 153.000 L 136.167 153.167 L 135.333 153.167 L 135.167 153.333 L 134.833 153.333 L 134.667 153.500 L 134.333 153.500 L 134.167 153.667 L 133.667 153.667 L 133.500 153.833 L 133.000 153.833 L 132.833 154.000 L 132.167 154.000 L 132.000 154.167 L 131.000 154.167 L 130.833 154.333 L 129.667 154.333 L 129.500 154.500 L 128.667 154.500 L 128.500 154.667 L 127.667 154.667 L 127.500 154.833 L 127.167 154.833 L 127.000 155.000 L 126.333 155.000 L 126.167 155.167 L 125.500 155.167 L 125.333 155.333 L 124.167 155.333 L 124.000 155.500 L 122.667 155.500 L 122.500 155.667 L 121.500 155.667 L 121.333 155.833 L 120.500 155.833 L 120.333 156.000 L 119.667 156.000 L 119.500 156.167 L 118.333 156.167 L 118.167 156.333 L 115.833 156.333 L 115.667 156.500 L 111.667 156.500 L 111.500 156.667 L 106.667 156.667 L 106.500 156.833 L 96.500 156.833 L 96.333 156.667 L 92.667 156.667 L 92.500 156.500 L 89.500 156.500 L 89.333 156.333 L 87.667 156.333 L 87.500 156.167 L 86.500 156.167 L 86.333 156.000 L 85.500 156.000 L 85.333 155.833 L 84.333 155.833 L 84.167 155.667 L 82.833 155.667 L 82.667 155.500 L 81.167 155.500 L 81.000 155.333 L 79.667 155.333 L 79.500 155.167 L 78.833 155.167 L 78.667 155.000 L 77.667 155.000 L 77.500 154.833 L 76.500 154.833 L 76.333 154.667 L 75.500 154.667 L 75.333 154.500 L 74.333 154.500 L 74.167 154.333 L 73.167 154.333 L 73.000 154.167 L 72.333 154.167 L 72.167 154.000 L 71.500 154.000 L 71.333 153.833 L 70.667 153.833 L 70.500 153.667 L 70.167 153.667 L 70.000 153.500 L 69.500 153.500 L 69.333 153.333 L 68.667 153.333 L 68.500 153.167 L 68.000 153.167 L 67.833 153.000 L 67.333 153.000 L 67.167 152.833 L 66.667 152.833 L 66.500 152.667 L 66.167 152.667 L 66.000 152.500 L 65.667 152.500 L 65.500 152.333 L 65.167 152.333 L 65.000 152.167 L 64.500 152.167 L 64.333 152.000 L 64.000 152.000 L 63.833 151.833 L 63.333 151.833 L 63.167 151.667 L 62.833 151.667 L 62.667 151.500 L 62.333 151.500 L 62.167 151.333 L 61.667 151.333 L 61.500 151.167 L 61.333 151.167 L 61.167 151.000 L 60.833 151.000 L 60.667 150.833 L 60.333 150.833 L 60.167 150.667 L 59.667 150.667 L 59.500 150.500 L 59.333 150.500 L 59.167 150.333 L 58.833 150.333 L 58.667 150.167 L 58.500 150.167 L 58.333 150.000 L 58.167 150.000 L 58.000 149.833 L 57.500 149.833 L 57.333 149.667 L 57.000 149.667 L 56.833 149.500 L 56.500 149.500 L 56.333 149.333 L 56.167 149.333 L 56.000 149.167 L 55.667 149.167 L 55.333 148.833 L 55.000 148.833 L 54.833 148.667 L 54.500 148.667 L 54.333 148.500 L 54.167 148.500 L 54.000 148.333 L 53.667 148.333 L 53.333 148.000 L 53.167 148.000 L 53.000 147.833 L 52.833 147.833 L 52.667 147.667 L 52.500 147.667 L 52.333 147.500 L 52.000 147.500 L 51.833 147.333 L 51.667 147.333 L 51.333 147.000 L 51.167 147.000 L 51.000 146.833 L 50.833 146.833 L 50.667 146.667 L 50.500 146.667 L 50.333 146.500 L 50.167 146.500 L 50.000 146.333 L 49.667 146.333 L 49.333 146.000 L 49.167 146.000 L 49.000 145.833 L 48.833 145.833 L 48.500 145.500 L 48.333 145.500 L 48.167 145.333 L 47.833 145.333 L 47.500 145.000 L 47.333 145.000 L 46.833 144.500 L 46.667 144.500 L 46.333 144.167 L 46.167 144.167 L 46.000 144.000 L 45.833 144.000 L 45.333 143.500 L 45.167 143.500 L 44.833 143.167 L 44.667 143.167 L 43.833 142.333 L 43.667 142.333 L 42.833 141.500 L 42.667 141.500 L 42.333 141.167 L 42.333 141.000 L 41.333 140.000 L 41.333 139.833 L 40.833 139.333 L 40.833 139.167 L 40.500 138.833 L 40.500 138.667 L 40.333 138.500 L 40.333 138.333 L 40.167 138.167 L 40.167 138.000 L 40.000 137.833 L 40.000 137.667 L 39.833 137.500 L 39.833 137.333 L 39.667 137.167 L 39.667 136.667 L 39.500 136.500 L 39.500 136.167 L 39.333 136.000 L 39.333 134.667 L 39.167 134.500 L 39.167 130.667 L 39.333 130.500 L 39.333 130.333 L 39.500 130.167 L 39.667 130.167 L 39.833 130.000 L 40.167 130.000 L 40.333 130.167 L 40.500 130.167 L 40.667 130.333 L 40.833 130.333 L 41.000 130.500 L 41.167 130.500 L 42.000 131.333 L 42.167 131.333 L 42.667 131.833 L 42.833 131.833 L 43.167 132.167 L 43.333 132.167 L 43.833 132.667 L 44.000 132.667 L 44.500 133.167 L 44.667 133.167 L 44.833 133.333 L 45.000 133.333 L 45.500 133.833 L 45.667 133.833 L 45.833 134.000 L 46.000 134.000 L 46.167 134.167 L 46.333 134.167 L 46.667 134.500 L 46.833 134.500 L 47.000 134.667 L 47.167 134.667 L 47.500 135.000 L 47.667 135.000 L 47.833 135.167 L 48.167 135.167 L 48.500 135.500 L 48.667 135.500 L 48.833 135.667 L 49.000 135.667 L 49.167 135.833 L 49.333 135.833 L 49.500 136.000 L 49.667 136.000 L 49.833 136.167 L 50.167 136.167 L 50.333 136.333 L 50.500 136.333 L 50.667 136.500 L 50.833 136.500 L 51.000 136.667 L 51.167 136.667 L 51.500 137.000 L 51.667 137.000 L 51.833 137.167 L 52.167 137.167 L 52.333 137.333 L 52.667 137.333 L 52.833 137.500 L 53.167 137.500 L 53.500 137.833 L 53.667 137.833 L 53.833 138.000 L 54.000 138.000 L 54.167 138.167 L 54.333 138.167 L 54.500 138.333 L 55.000 138.333 L 55.167 138.500 L 55.333 138.500 L 55.500 138.667 L 55.667 138.667 L 55.833 138.833 L 56.000 138.833 L 56.167 139.000 L 56.333 139.000 L 56.500 139.167 L 56.833 139.167 L 57.000 139.333 L 57.333 139.333 L 57.500 139.500 L 57.667 139.500 L 57.833 139.667 L 58.167 139.667 L 58.333 139.833 L 58.667 139.833 L 58.833 140.000 L 59.167 140.000 L 59.333 140.167 L 59.500 140.167 L 59.667 140.333 L 60.167 140.333 L 60.333 140.500 L 60.667 140.500 L 60.833 140.667 L 61.333 140.667 L 61.500 140.833 L 61.833 140.833 L 62.000 141.000 L 62.333 141.000 L 62.500 141.167 L 62.833 141.167 L 63.000 141.333 L 63.500 141.333 L 63.667 141.500 L 64.167 141.500 L 64.333 141.667 L 64.833 141.667 L 65.000 141.833 L 65.500 141.833 L 65.667 142.000 L 66.333 142.000 L 66.500 142.167 L 67.000 142.167 L 67.167 142.333 L 67.667 142.333 L 67.833 142.500 L 68.500 142.500 L 68.667 142.667 L 69.333 142.667 L 69.500 142.833 L 70.333 142.833 L 70.500 143.000 L 71.167 143.000 L 71.333 143.167 L 72.000 143.167 L 72.167 143.333 L 73.000 143.333 L 73.167 143.500 L 74.000 143.500 L 74.167 143.667 L 74.833 143.667 L 75.000 143.833 L 75.500 143.833 L 75.667 144.000 L 76.333 144.000 L 76.500 144.167 L 77.333 144.167 L 77.500 144.333 L 79.000 144.333 L 79.167 144.500 L 79.833 144.500 L 80.000 144.667 L 80.500 144.667 L 80.667 144.833 L 81.500 144.833 L 81.667 145.000 L 82.333 145.000 L 82.500 145.167 L 83.667 145.167 L 83.833 145.333 L 86.333 145.333 L 86.500 145.500 L 89.167 145.500 L 89.333 145.667 L 91.333 145.667 L 91.500 145.833 L 93.167 145.833 L 93.333 146.000 L 95.833 146.000 L 96.000 146.167 L 101.333 146.167 L 101.500 146.333 L 104.500 146.333 L 104.667 146.167 L 110.000 146.167 L 110.167 146.000 L 112.833 146.000 L 113.000 145.833 L 114.500 145.833 L 114.667 145.667 L 116.667 145.667 L 116.833 145.500 L 119.000 145.500 L 119.167 145.333 L 121.333 145.333 L 121.500 145.167 L 123.000 145.167 L 123.167 145.000 L 124.000 145.000 L 124.167 144.833 L 124.667 144.833 L 124.833 144.667 L 125.500 144.667 L 125.667 144.500 L 126.333 144.500 L 126.500 144.333 L 127.333 144.333 L 127.500 144.167 L 128.500 144.167 L 128.667 144.000 L 129.333 144.000 L 129.500 143.833 L 130.167 143.833 L 130.333 143.667 L 131.000 143.667 L 131.167 143.500 L 131.667 143.500 L 131.833 143.333 L 132.333 143.333 L 132.500 143.167 L 133.167 143.167 L 133.333 143.000 L 134.000 143.000 L 134.167 142.833 L 134.667 142.833 L 134.833 142.667 L 135.333 142.667 L 135.500 142.500 L 136.000 142.500 L 136.167 142.333 L 136.833 142.333 L 137.000 142.167 L 137.500 142.167 L 137.667 142.000 L 138.167 142.000 L 138.333 141.833 L 139.000 141.833 L 139.167 141.667 L 139.833 141.667 L 140.000 141.500 L 140.667 141.500 L 140.833 141.333 L 141.333 141.333 L 141.500 141.167 L 142.000 141.167 L 142.167 141.000 L 142.500 141.000 L 142.667 140.833 L 143.000 140.833 L 143.167 140.667 L 143.667 140.667 L 143.833 140.500 L 144.333 140.500 L 144.500 140.333 L 145.000 140.333 L 145.167 140.167 L 145.500 140.167 L 145.667 140.000 L 146.000 140.000 L 146.167 139.833 L 146.333 139.833 L 146.500 139.667 L 147.000 139.667 L 147.167 139.500 L 147.500 139.500 L 147.667 139.333 L 148.167 139.333 L 148.333 139.167 L 148.500 139.167 L 148.667 139.000 L 148.833 139.000 L 149.000 138.833 L 149.167 138.833 L 149.333 138.667 L 149.500 138.667 L 149.667 138.500 L 149.833 138.500 L 150.000 138.333 L 150.333 138.333 L 150.500 138.167 L 150.667 138.167 L 150.833 138.000 L 151.167 138.000 L 151.500 137.667 L 151.667 137.667 L 151.833 137.500 L 152.167 137.500 L 152.333 137.333 L 152.500 137.333 L 152.667 137.167 L 153.000 137.167 L 153.167 137.000 L 153.333 137.000 L 153.667 136.667 L 153.833 136.667 L 154.000 136.500 L 154.167 136.500 L 154.333 136.333 L 154.500 136.333 L 154.667 136.167 L 155.000 136.167 L 155.333 135.833 L 155.500 135.833 L 155.833 135.500 L 156.000 135.500 L 156.167 135.333 L 156.333 135.333 L 156.500 135.167 L 156.667 135.167 L 156.833 135.000 L 157.167 135.000 L 157.667 134.500 L 157.833 134.500 L 158.000 134.333 L 158.167 134.333 L 158.333 134.167 L 158.500 134.167 L 158.667 134.000 L 158.833 134.000 L 159.000 133.833 L 159.167 133.833 L 159.500 133.500 L 159.667 133.500 L 159.833 133.333 L 160.000 133.333 L 160.167 133.167 L 160.333 133.167 L 160.667 132.833 L 160.833 132.833 L 161.167 132.500 L 161.333 132.500 L 161.833 132.000 L 162.000 132.000 L 162.500 131.500 L 162.667 131.500 L 163.000 131.167 L 163.167 131.167 L 163.500 130.833 L 163.500 130.667 L 164.000 130.167 L 164.167 130.167 L 164.500 129.833 L 164.833 129.833 Z M 141.500 129.333 L 141.500 128.833 L 141.167 128.500 L 138.167 128.500 L 138.000 128.333 L 137.500 128.333 L 137.333 128.167 L 136.833 128.167 L 136.667 128.000 L 136.500 128.000 L 136.333 127.833 L 135.833 127.833 L 135.667 127.667 L 135.333 127.667 L 135.167 127.500 L 134.500 127.500 L 134.333 127.333 L 134.167 127.333 L 134.000 127.167 L 133.833 127.167 L 133.500 126.833 L 133.333 126.833 L 133.000 126.500 L 132.667 126.500 L 132.500 126.333 L 132.333 126.333 L 132.167 126.167 L 131.000 126.167 L 130.833 126.333 L 130.667 126.333 L 130.333 126.667 L 130.167 126.667 L 130.000 126.833 L 129.833 126.833 L 129.667 127.000 L 129.500 127.000 L 129.167 127.333 L 128.833 127.333 L 128.667 127.500 L 128.000 127.500 L 127.833 127.667 L 127.000 127.667 L 126.833 127.833 L 126.500 127.833 L 126.333 128.000 L 126.167 128.000 L 126.000 128.167 L 125.833 128.167 L 125.667 128.333 L 125.500 128.333 L 125.333 128.500 L 125.167 128.500 L 125.000 128.667 L 124.833 128.667 L 124.667 128.833 L 124.500 128.833 L 124.167 129.167 L 124.000 129.167 L 123.833 129.333 L 123.667 129.333 L 123.500 129.500 L 123.167 129.500 L 123.000 129.667 L 122.333 129.667 L 122.167 129.833 L 120.167 129.833 L 120.000 130.000 L 118.833 130.000 L 118.667 129.833 L 117.667 129.833 L 117.500 129.667 L 117.167 129.667 L 117.000 129.500 L 116.667 129.500 L 116.500 129.333 L 116.333 129.333 L 116.167 129.167 L 116.000 129.167 L 115.833 129.000 L 115.667 129.000 L 115.333 128.667 L 115.167 128.667 L 115.000 128.500 L 114.667 128.500 L 114.333 128.167 L 114.167 128.167 L 113.833 127.833 L 113.667 127.833 L 113.500 127.667 L 113.167 127.667 L 113.000 127.500 L 110.833 127.500 L 110.667 127.667 L 110.333 127.667 L 110.167 127.833 L 109.833 127.833 L 109.667 128.000 L 109.500 128.000 L 109.333 128.167 L 109.167 128.167 L 109.000 128.333 L 108.667 128.333 L 108.500 128.500 L 108.333 128.500 L 108.167 128.667 L 107.833 128.667 L 107.667 128.833 L 107.500 128.833 L 107.333 129.000 L 107.167 129.000 L 107.000 129.167 L 106.833 129.167 L 106.667 129.333 L 106.500 129.333 L 106.333 129.500 L 106.167 129.500 L 106.000 129.667 L 105.667 129.667 L 105.500 129.833 L 105.333 129.833 L 105.167 130.000 L 104.833 130.000 L 104.667 130.167 L 104.333 130.167 L 104.167 130.333 L 103.333 130.333 L 103.167 130.500 L 102.667 130.500 L 102.500 130.333 L 101.833 130.333 L 101.667 130.167 L 101.500 130.167 L 101.333 130.000 L 101.167 130.000 L 101.000 129.833 L 100.833 129.833 L 100.667 129.667 L 100.500 129.667 L 100.167 129.333 L 100.000 129.333 L 99.833 129.167 L 99.667 129.167 L 99.333 128.833 L 99.167 128.833 L 99.000 128.667 L 98.833 128.667 L 98.667 128.500 L 98.500 128.500 L 98.333 128.333 L 98.000 128.333 L 97.833 128.167 L 97.500 128.167 L 97.333 128.000 L 96.833 128.000 L 96.667 127.833 L 96.000 127.833 L 95.833 127.667 L 94.000 127.667 L 93.833 127.833 L 93.500 127.833 L 93.333 128.000 L 93.167 128.000 L 93.000 128.167 L 92.833 128.167 L 92.500 128.500 L 92.333 128.500 L 92.167 128.667 L 92.000 128.667 L 91.833 128.833 L 91.667 128.833 L 91.333 129.167 L 91.167 129.167 L 91.000 129.333 L 90.833 129.333 L 90.667 129.500 L 90.333 129.500 L 90.167 129.667 L 89.667 129.667 L 89.500 129.833 L 89.167 129.833 L 89.000 130.000 L 86.500 130.000 L 86.333 129.833 L 85.833 129.833 L 85.667 129.667 L 85.333 129.667 L 85.167 129.500 L 85.000 129.500 L 84.833 129.333 L 84.667 129.333 L 84.500 129.167 L 84.333 129.167 L 84.000 128.833 L 83.833 128.833 L 83.667 128.667 L 83.500 128.667 L 83.333 128.500 L 83.167 128.500 L 83.000 128.333 L 82.833 128.333 L 82.333 127.833 L 82.167 127.833 L 82.000 127.667 L 81.833 127.667 L 81.667 127.500 L 81.500 127.500 L 81.333 127.333 L 81.167 127.333 L 81.000 127.167 L 80.833 127.167 L 80.667 127.000 L 80.500 127.000 L 80.167 126.667 L 79.833 126.667 L 79.667 126.500 L 78.333 126.500 L 78.167 126.667 L 77.833 126.667 L 77.667 126.833 L 77.500 126.833 L 77.333 127.000 L 77.000 127.000 L 76.833 127.167 L 76.500 127.167 L 76.333 127.333 L 75.667 127.333 L 75.500 127.500 L 72.500 127.500 L 72.333 127.667 L 71.667 127.667 L 71.500 127.833 L 71.333 127.833 L 71.167 128.000 L 71.000 128.000 L 70.833 128.167 L 70.667 128.167 L 70.500 128.333 L 70.000 128.333 L 69.833 128.500 L 67.500 128.500 L 67.333 128.333 L 66.833 128.333 L 66.667 128.167 L 66.500 128.167 L 66.333 128.000 L 66.167 128.000 L 66.000 127.833 L 65.833 127.833 L 65.667 127.667 L 65.500 127.667 L 65.333 127.500 L 65.167 127.500 L 65.000 127.333 L 64.667 127.333 L 64.500 127.167 L 64.333 127.167 L 64.167 127.000 L 63.833 127.000 L 63.667 126.833 L 62.333 126.833 L 61.833 127.333 L 61.833 127.500 L 61.667 127.667 L 61.667 128.167 L 61.833 128.333 L 61.833 128.500 L 62.000 128.667 L 62.167 128.667 L 62.500 129.000 L 62.667 129.000 L 62.833 129.167 L 63.333 129.167 L 63.500 129.333 L 63.667 129.333 L 63.833 129.500 L 64.000 129.500 L 64.167 129.667 L 64.333 129.667 L 64.667 130.000 L 64.833 130.000 L 65.000 130.167 L 65.167 130.167 L 65.333 130.333 L 65.500 130.333 L 65.667 130.500 L 65.833 130.500 L 66.000 130.667 L 66.333 130.667 L 66.500 130.833 L 66.667 130.833 L 66.833 131.000 L 67.167 131.000 L 67.333 131.167 L 68.500 131.167 L 68.667 131.000 L 69.167 131.000 L 69.333 130.833 L 69.500 130.833 L 69.667 130.667 L 70.000 130.667 L 70.167 130.500 L 70.667 130.500 L 70.833 130.333 L 72.000 130.333 L 72.167 130.167 L 74.167 130.167 L 74.333 130.000 L 75.000 130.000 L 75.167 129.833 L 75.333 129.833 L 75.500 129.667 L 76.000 129.667 L 76.167 129.500 L 76.333 129.500 L 76.500 129.333 L 76.833 129.333 L 77.000 129.167 L 77.333 129.167 L 77.500 129.000 L 77.833 129.000 L 78.000 128.833 L 79.333 128.833 L 79.500 129.000 L 79.667 129.000 L 79.833 129.167 L 80.167 129.167 L 80.500 129.500 L 80.667 129.500 L 81.333 130.167 L 81.500 130.167 L 81.833 130.500 L 82.000 130.500 L 82.500 131.000 L 82.667 131.000 L 82.833 131.167 L 83.000 131.167 L 83.167 131.333 L 83.333 131.333 L 83.500 131.500 L 83.667 131.500 L 83.833 131.667 L 84.000 131.667 L 84.167 131.833 L 84.333 131.833 L 84.500 132.000 L 84.833 132.000 L 85.000 132.167 L 85.500 132.167 L 85.667 132.333 L 86.500 132.333 L 86.667 132.500 L 88.667 132.500 L 88.833 132.333 L 89.833 132.333 L 90.000 132.167 L 90.333 132.167 L 90.500 132.000 L 90.833 132.000 L 91.000 131.833 L 91.333 131.833 L 91.500 131.667 L 91.833 131.667 L 92.000 131.500 L 92.167 131.500 L 92.333 131.333 L 92.500 131.333 L 92.667 131.167 L 92.833 131.167 L 93.000 131.000 L 93.167 131.000 L 93.500 130.667 L 93.667 130.667 L 93.833 130.500 L 94.333 130.500 L 94.500 130.333 L 96.833 130.333 L 97.000 130.500 L 97.333 130.500 L 97.500 130.667 L 97.667 130.667 L 97.833 130.833 L 98.000 130.833 L 98.333 131.167 L 98.500 131.167 L 98.667 131.333 L 98.833 131.333 L 99.000 131.500 L 99.333 131.500 L 99.500 131.667 L 99.667 131.667 L 99.833 131.833 L 100.000 131.833 L 100.167 132.000 L 100.333 132.000 L 100.500 132.167 L 100.667 132.167 L 100.833 132.333 L 101.333 132.333 L 101.500 132.500 L 102.667 132.500 L 102.833 132.667 L 103.833 132.667 L 104.000 132.500 L 105.167 132.500 L 105.333 132.333 L 106.000 132.333 L 106.167 132.167 L 106.333 132.167 L 106.500 132.000 L 106.833 132.000 L 107.000 131.833 L 107.333 131.833 L 107.500 131.667 L 107.667 131.667 L 107.833 131.500 L 108.333 131.500 L 108.500 131.333 L 108.667 131.333 L 108.833 131.167 L 109.000 131.167 L 109.167 131.000 L 109.333 131.000 L 109.667 130.667 L 110.000 130.667 L 110.167 130.500 L 110.500 130.500 L 110.667 130.333 L 111.333 130.333 L 111.500 130.167 L 113.333 130.167 L 113.500 130.333 L 114.000 130.333 L 114.167 130.500 L 114.500 130.500 L 114.667 130.667 L 114.833 130.667 L 115.000 130.833 L 115.167 130.833 L 115.667 131.333 L 115.833 131.333 L 116.000 131.500 L 116.167 131.500 L 116.333 131.667 L 116.500 131.667 L 116.667 131.833 L 117.000 131.833 L 117.167 132.000 L 117.333 132.000 L 117.500 132.167 L 118.167 132.167 L 118.333 132.333 L 122.333 132.333 L 122.500 132.167 L 123.167 132.167 L 123.333 132.000 L 123.667 132.000 L 123.833 131.833 L 124.333 131.833 L 124.500 131.667 L 125.000 131.667 L 125.167 131.500 L 125.500 131.500 L 125.667 131.333 L 126.000 131.333 L 126.167 131.167 L 126.333 131.167 L 126.500 131.000 L 126.667 131.000 L 126.833 130.833 L 127.167 130.833 L 127.333 130.667 L 127.500 130.667 L 127.667 130.500 L 128.000 130.500 L 128.167 130.333 L 128.333 130.333 L 128.500 130.167 L 128.667 130.167 L 128.833 130.000 L 129.000 130.000 L 129.167 129.833 L 129.333 129.833 L 129.667 129.500 L 130.000 129.500 L 130.167 129.333 L 130.500 129.333 L 130.667 129.167 L 132.667 129.167 L 132.833 129.333 L 133.167 129.333 L 133.333 129.500 L 133.667 129.500 L 133.833 129.667 L 134.167 129.667 L 134.333 129.833 L 134.500 129.833 L 134.667 130.000 L 135.000 130.000 L 135.167 130.167 L 135.500 130.167 L 135.667 130.333 L 136.667 130.333 L 136.833 130.500 L 138.167 130.500 L 138.333 130.333 L 140.000 130.333 L 140.167 130.167 L 140.500 130.167 L 140.667 130.000 L 140.833 130.000 L 141.000 129.833 L 141.167 129.833 L 141.333 129.667 L 141.333 129.500 Z M 125.000 109.000 L 125.000 109.667 L 125.167 109.833 L 125.167 110.000 L 125.333 110.167 L 125.500 110.167 L 125.667 110.333 L 126.000 110.333 L 126.167 110.500 L 127.667 110.500 L 127.833 110.667 L 128.833 110.667 L 129.000 110.833 L 129.333 110.833 L 129.500 111.000 L 130.333 111.000 L 130.500 111.167 L 131.167 111.167 L 131.333 111.333 L 132.833 111.333 L 133.000 111.500 L 133.333 111.500 L 133.500 111.667 L 134.167 111.667 L 134.333 111.833 L 134.667 111.833 L 134.833 112.000 L 135.167 112.000 L 135.333 112.167 L 135.833 112.167 L 136.000 112.333 L 136.333 112.333 L 136.500 112.500 L 137.000 112.500 L 137.167 112.667 L 137.333 112.667 L 137.500 112.833 L 137.833 112.833 L 138.000 113.000 L 138.333 113.000 L 138.500 113.167 L 138.833 113.167 L 139.000 113.333 L 139.500 113.333 L 139.667 113.500 L 140.167 113.500 L 140.333 113.667 L 140.833 113.667 L 141.000 113.833 L 141.333 113.833 L 141.500 114.000 L 141.667 114.000 L 141.833 114.167 L 142.333 114.167 L 142.500 114.333 L 143.000 114.333 L 143.167 114.500 L 143.500 114.500 L 143.667 114.667 L 143.833 114.667 L 144.000 114.833 L 144.167 114.833 L 144.333 115.000 L 144.500 115.000 L 144.667 115.167 L 145.000 115.167 L 145.167 115.333 L 145.500 115.333 L 145.667 115.500 L 145.833 115.500 L 146.000 115.667 L 146.167 115.667 L 146.333 115.833 L 146.500 115.833 L 146.667 116.000 L 146.833 116.000 L 147.000 116.167 L 147.167 116.167 L 147.333 116.333 L 147.667 116.333 L 147.833 116.500 L 148.167 116.500 L 148.500 116.833 L 148.667 116.833 L 148.833 117.000 L 149.000 117.000 L 149.167 117.167 L 149.333 117.167 L 149.500 117.333 L 150.167 117.333 L 150.333 117.500 L 150.500 117.500 L 150.667 117.667 L 151.167 117.667 L 151.333 117.833 L 151.667 117.833 L 151.833 118.000 L 152.333 118.000 L 152.500 118.167 L 152.833 118.167 L 153.000 118.333 L 153.333 118.333 L 153.500 118.500 L 153.833 118.500 L 154.000 118.667 L 154.333 118.667 L 154.667 119.000 L 154.833 119.000 L 155.000 119.167 L 155.500 119.167 L 155.667 119.333 L 156.167 119.333 L 156.333 119.167 L 156.500 119.167 L 156.667 119.000 L 156.833 119.000 L 157.000 118.833 L 157.000 118.000 L 155.833 116.833 L 155.667 116.833 L 155.500 116.667 L 155.333 116.667 L 155.167 116.500 L 154.833 116.500 L 154.667 116.333 L 154.500 116.333 L 154.333 116.167 L 154.167 116.167 L 154.000 116.000 L 153.667 116.000 L 153.500 115.833 L 153.333 115.833 L 153.167 115.667 L 152.833 115.667 L 152.667 115.500 L 152.500 115.500 L 152.333 115.333 L 152.000 115.333 L 151.833 115.167 L 151.500 115.167 L 151.333 115.000 L 151.167 115.000 L 151.000 114.833 L 150.667 114.833 L 150.500 114.667 L 150.333 114.667 L 150.167 114.500 L 149.833 114.500 L 149.667 114.333 L 149.500 114.333 L 149.167 114.000 L 149.000 114.000 L 148.833 113.833 L 148.667 113.833 L 148.333 113.500 L 148.167 113.500 L 148.000 113.333 L 147.833 113.333 L 147.500 113.000 L 147.333 113.000 L 147.000 112.667 L 146.667 112.667 L 146.500 112.500 L 146.333 112.500 L 146.167 112.333 L 145.833 112.333 L 145.667 112.167 L 145.500 112.167 L 145.333 112.000 L 145.167 112.000 L 145.000 111.833 L 144.833 111.833 L 144.667 111.667 L 144.333 111.667 L 144.167 111.500 L 143.500 111.500 L 143.333 111.333 L 143.000 111.333 L 142.833 111.167 L 142.500 111.167 L 142.333 111.000 L 142.000 111.000 L 141.833 110.833 L 141.333 110.833 L 141.167 110.667 L 140.500 110.667 L 140.333 110.500 L 139.333 110.500 L 139.167 110.333 L 138.500 110.333 L 138.333 110.167 L 137.833 110.167 L 137.667 110.000 L 137.333 110.000 L 137.167 109.833 L 136.833 109.833 L 136.667 109.667 L 136.333 109.667 L 136.167 109.500 L 135.667 109.500 L 135.500 109.333 L 133.500 109.333 L 133.333 109.167 L 132.833 109.167 L 132.667 109.000 L 132.333 109.000 L 132.167 108.833 L 131.667 108.833 L 131.500 108.667 L 130.500 108.667 L 130.333 108.500 L 129.500 108.500 L 129.333 108.333 L 128.500 108.333 L 128.333 108.167 L 127.667 108.167 L 127.500 108.000 L 125.833 108.000 L 125.167 108.667 L 125.167 108.833 Z M 95.500 109.667 L 95.667 109.500 L 95.667 109.000 L 95.833 108.833 L 95.833 108.667 L 96.500 108.000 L 96.667 108.000 L 96.833 107.833 L 104.500 107.833 L 104.667 108.000 L 115.000 108.000 L 115.167 108.167 L 115.500 108.167 L 115.667 108.333 L 115.833 108.333 L 116.167 108.667 L 116.167 108.833 L 116.333 109.000 L 116.333 109.167 L 116.500 109.333 L 116.500 111.000 L 116.333 111.167 L 116.333 111.667 L 116.500 111.833 L 116.500 112.500 L 116.333 112.667 L 116.333 113.333 L 116.167 113.500 L 116.167 113.667 L 115.333 114.500 L 114.500 114.500 L 114.333 114.667 L 105.500 114.667 L 105.333 114.500 L 97.500 114.500 L 97.333 114.333 L 96.833 114.333 L 96.167 113.667 L 96.167 113.500 L 95.833 113.167 L 95.833 112.500 L 95.667 112.333 L 95.667 110.000 L 95.500 109.833 Z M 87.000 107.833 L 86.833 107.667 L 86.833 107.500 L 86.167 106.833 L 85.833 106.833 L 85.667 106.667 L 84.333 106.667 L 84.167 106.833 L 83.167 106.833 L 83.000 107.000 L 82.000 107.000 L 81.833 107.167 L 80.500 107.167 L 80.333 107.333 L 79.333 107.333 L 79.167 107.500 L 77.333 107.500 L 77.167 107.667 L 76.500 107.667 L 76.333 107.833 L 76.167 107.833 L 76.000 108.000 L 75.833 108.000 L 75.667 108.167 L 75.500 108.167 L 75.333 108.333 L 75.000 108.333 L 74.833 108.500 L 74.500 108.500 L 74.333 108.667 L 73.667 108.667 L 73.500 108.833 L 71.667 108.833 L 71.500 109.000 L 71.000 109.000 L 70.833 109.167 L 70.500 109.167 L 70.333 109.333 L 69.667 109.333 L 69.500 109.500 L 69.000 109.500 L 68.833 109.667 L 68.500 109.667 L 68.333 109.833 L 67.667 109.833 L 67.500 110.000 L 67.167 110.000 L 67.000 110.167 L 66.667 110.167 L 66.500 110.333 L 66.167 110.333 L 66.000 110.500 L 65.500 110.500 L 65.333 110.667 L 64.833 110.667 L 64.667 110.833 L 64.500 110.833 L 64.333 111.000 L 64.000 111.000 L 63.833 111.167 L 63.500 111.167 L 63.333 111.333 L 62.833 111.333 L 62.667 111.500 L 62.333 111.500 L 62.167 111.667 L 61.500 111.667 L 61.333 111.833 L 60.667 111.833 L 60.500 112.000 L 60.333 112.000 L 60.167 112.167 L 59.833 112.167 L 59.667 112.333 L 59.500 112.333 L 59.333 112.500 L 59.000 112.500 L 58.833 112.667 L 58.667 112.667 L 58.333 113.000 L 58.167 113.000 L 57.833 113.333 L 57.667 113.333 L 57.500 113.500 L 57.333 113.500 L 57.167 113.667 L 57.000 113.667 L 56.833 113.833 L 56.500 113.833 L 56.333 114.000 L 56.167 114.000 L 56.000 114.167 L 55.833 114.167 L 55.667 114.333 L 55.500 114.333 L 55.333 114.500 L 54.833 114.500 L 54.667 114.667 L 54.500 114.667 L 54.333 114.833 L 54.000 114.833 L 53.833 115.000 L 53.667 115.000 L 53.500 115.167 L 53.333 115.167 L 53.167 115.333 L 53.000 115.333 L 52.833 115.500 L 52.667 115.500 L 52.500 115.667 L 52.333 115.667 L 52.000 116.000 L 51.667 116.000 L 51.333 116.333 L 51.167 116.333 L 51.000 116.500 L 50.667 116.500 L 50.333 116.833 L 50.167 116.833 L 50.000 117.000 L 49.833 117.000 L 49.667 117.167 L 49.500 117.167 L 49.167 117.500 L 49.000 117.500 L 48.833 117.667 L 48.667 117.667 L 48.167 118.167 L 48.167 118.333 L 47.833 118.667 L 47.833 118.833 L 47.667 119.000 L 47.667 120.000 L 48.000 120.333 L 49.000 120.333 L 49.167 120.167 L 49.333 120.167 L 49.667 119.833 L 49.833 119.833 L 50.000 119.667 L 50.167 119.667 L 50.500 119.333 L 50.833 119.333 L 51.000 119.167 L 51.167 119.167 L 51.667 118.667 L 51.833 118.667 L 52.000 118.500 L 52.167 118.500 L 52.333 118.333 L 52.667 118.333 L 52.833 118.167 L 53.167 118.167 L 53.333 118.000 L 53.500 118.000 L 53.667 117.833 L 53.833 117.833 L 54.000 117.667 L 54.167 117.667 L 54.333 117.500 L 54.667 117.500 L 54.833 117.333 L 55.333 117.333 L 55.500 117.167 L 55.667 117.167 L 55.833 117.000 L 56.167 117.000 L 56.333 116.833 L 56.500 116.833 L 56.667 116.667 L 56.833 116.667 L 57.000 116.500 L 57.167 116.500 L 57.333 116.333 L 57.667 116.333 L 57.833 116.167 L 58.167 116.167 L 58.333 116.000 L 58.500 116.000 L 58.667 115.833 L 58.833 115.833 L 59.000 115.667 L 59.167 115.667 L 59.333 115.500 L 59.500 115.500 L 59.667 115.333 L 60.167 115.333 L 60.333 115.167 L 60.667 115.167 L 60.833 115.000 L 61.167 115.000 L 61.333 114.833 L 61.667 114.833 L 61.833 114.667 L 62.333 114.667 L 62.500 114.500 L 62.833 114.500 L 63.000 114.333 L 63.333 114.333 L 63.500 114.167 L 64.000 114.167 L 64.167 114.000 L 64.500 114.000 L 64.667 113.833 L 65.000 113.833 L 65.167 113.667 L 65.333 113.667 L 65.500 113.500 L 66.000 113.500 L 66.167 113.333 L 66.500 113.333 L 66.667 113.167 L 67.000 113.167 L 67.167 113.000 L 67.333 113.000 L 67.500 112.833 L 67.833 112.833 L 68.000 112.667 L 68.333 112.667 L 68.500 112.500 L 69.333 112.500 L 69.500 112.333 L 69.833 112.333 L 70.000 112.167 L 70.500 112.167 L 70.667 112.000 L 71.500 112.000 L 71.667 111.833 L 73.167 111.833 L 73.333 111.667 L 74.167 111.667 L 74.333 111.500 L 74.667 111.500 L 74.833 111.333 L 75.333 111.333 L 75.500 111.167 L 75.667 111.167 L 75.833 111.000 L 76.167 111.000 L 76.333 110.833 L 76.667 110.833 L 76.833 110.667 L 77.333 110.667 L 77.500 110.500 L 78.333 110.500 L 78.500 110.333 L 80.500 110.333 L 80.667 110.167 L 82.333 110.167 L 82.500 110.000 L 84.000 110.000 L 84.167 109.833 L 85.167 109.833 L 85.333 109.667 L 85.667 109.667 L 85.833 109.500 L 86.167 109.500 L 86.333 109.333 L 86.500 109.333 L 86.833 109.000 L 86.833 108.833 L 87.000 108.667 Z M 39.167 119.333 L 39.333 119.167 L 39.333 118.333 L 39.500 118.167 L 39.500 117.667 L 39.667 117.500 L 39.667 117.333 L 39.833 117.167 L 39.833 116.833 L 40.000 116.667 L 40.000 116.500 L 40.167 116.333 L 40.167 116.167 L 40.333 116.000 L 40.333 115.667 L 40.667 115.333 L 40.667 115.167 L 40.833 115.000 L 40.833 114.833 L 41.167 114.500 L 41.167 114.333 L 41.500 114.000 L 41.500 113.833 L 42.333 113.000 L 42.333 112.833 L 43.000 112.167 L 43.167 112.167 L 43.333 112.000 L 43.333 111.833 L 43.667 111.500 L 43.833 111.500 L 44.833 110.500 L 45.000 110.500 L 45.333 110.167 L 45.500 110.167 L 46.000 109.667 L 46.167 109.667 L 46.667 109.167 L 46.833 109.167 L 47.000 109.000 L 47.167 109.000 L 47.667 108.500 L 47.833 108.500 L 48.000 108.333 L 48.167 108.333 L 48.500 108.000 L 48.667 108.000 L 49.000 107.667 L 49.167 107.667 L 49.333 107.500 L 49.500 107.500 L 49.667 107.333 L 49.833 107.333 L 50.000 107.167 L 50.167 107.167 L 50.500 106.833 L 50.667 106.833 L 50.833 106.667 L 51.000 106.667 L 51.167 106.500 L 51.333 106.500 L 51.500 106.333 L 51.667 106.333 L 51.833 106.167 L 52.167 106.167 L 52.500 105.833 L 52.667 105.833 L 52.833 105.667 L 53.000 105.667 L 53.167 105.500 L 53.333 105.500 L 53.500 105.333 L 53.667 105.333 L 53.833 105.167 L 54.167 105.167 L 54.500 104.833 L 54.667 104.833 L 54.833 104.667 L 55.000 104.667 L 55.167 104.500 L 55.333 104.500 L 55.500 104.333 L 56.000 104.333 L 56.167 104.167 L 56.333 104.167 L 56.500 104.000 L 56.667 104.000 L 56.833 103.833 L 57.000 103.833 L 57.167 103.667 L 57.333 103.667 L 57.500 103.500 L 57.833 103.500 L 58.000 103.333 L 58.333 103.333 L 58.500 103.167 L 58.833 103.167 L 59.000 103.000 L 59.167 103.000 L 59.500 102.667 L 59.667 102.667 L 59.833 102.500 L 60.167 102.500 L 60.333 102.333 L 60.667 102.333 L 60.833 102.167 L 61.167 102.167 L 61.333 102.000 L 61.667 102.000 L 61.833 101.833 L 62.167 101.833 L 62.333 101.667 L 62.667 101.667 L 62.833 101.500 L 63.167 101.500 L 63.333 101.333 L 63.833 101.333 L 64.000 101.167 L 64.333 101.167 L 64.500 101.000 L 65.000 101.000 L 65.167 100.833 L 65.333 100.833 L 65.500 100.667 L 65.833 100.667 L 66.000 100.500 L 66.333 100.500 L 66.500 100.333 L 67.000 100.333 L 67.167 100.167 L 67.833 100.167 L 68.000 100.000 L 68.667 100.000 L 68.833 99.833 L 69.500 99.833 L 69.667 99.667 L 70.167 99.667 L 70.333 99.500 L 70.833 99.500 L 71.000 99.333 L 71.500 99.333 L 71.667 99.167 L 72.167 99.167 L 72.333 99.000 L 72.833 99.000 L 73.000 98.833 L 73.500 98.833 L 73.667 98.667 L 74.500 98.667 L 74.667 98.500 L 75.500 98.500 L 75.667 98.333 L 76.667 98.333 L 76.833 98.167 L 77.500 98.167 L 77.667 98.000 L 78.333 98.000 L 78.500 97.833 L 79.000 97.833 L 79.167 97.667 L 79.667 97.667 L 79.833 97.500 L 80.667 97.500 L 80.833 97.333 L 81.833 97.333 L 82.000 97.167 L 83.167 97.167 L 83.333 97.000 L 84.333 97.000 L 84.500 96.833 L 85.500 96.833 L 85.667 96.667 L 86.833 96.667 L 87.000 96.500 L 88.500 96.500 L 88.667 96.333 L 90.833 96.333 L 91.000 96.167 L 91.167 96.167 L 91.333 96.333 L 91.667 96.333 L 91.833 96.500 L 92.000 96.500 L 92.167 96.667 L 92.167 96.833 L 92.333 97.000 L 92.333 97.167 L 92.500 97.333 L 92.500 107.000 L 92.333 107.167 L 92.333 121.167 L 92.833 121.667 L 93.000 121.667 L 93.167 121.833 L 94.500 121.833 L 94.667 121.667 L 95.000 121.667 L 95.167 121.500 L 95.333 121.500 L 95.500 121.333 L 95.500 121.167 L 95.667 121.000 L 95.667 120.833 L 95.833 120.667 L 95.833 120.333 L 96.000 120.167 L 96.000 120.000 L 95.833 119.833 L 95.833 119.667 L 96.000 119.500 L 96.000 119.167 L 96.167 119.000 L 96.167 118.833 L 96.333 118.667 L 96.333 118.500 L 96.667 118.167 L 96.833 118.167 L 97.000 118.000 L 97.333 118.000 L 97.500 117.833 L 102.500 117.833 L 102.667 117.667 L 106.000 117.667 L 106.167 117.500 L 113.833 117.500 L 114.000 117.667 L 115.167 117.667 L 115.333 117.833 L 115.500 117.833 L 115.833 118.167 L 116.000 118.167 L 116.333 118.500 L 116.333 118.667 L 116.500 118.833 L 116.500 121.167 L 116.667 121.333 L 116.667 121.500 L 117.167 122.000 L 117.333 122.000 L 117.500 122.167 L 119.000 122.167 L 119.500 121.667 L 119.500 121.500 L 119.667 121.333 L 119.667 119.667 L 119.500 119.500 L 119.500 111.667 L 119.667 111.500 L 119.667 107.333 L 119.500 107.167 L 119.500 105.000 L 119.667 104.833 L 119.667 98.167 L 119.833 98.000 L 119.833 97.833 L 120.500 97.167 L 121.333 97.167 L 121.500 97.333 L 122.833 97.333 L 123.000 97.500 L 124.333 97.500 L 124.500 97.667 L 125.667 97.667 L 125.833 97.833 L 126.833 97.833 L 127.000 98.000 L 128.000 98.000 L 128.167 98.167 L 129.167 98.167 L 129.333 98.333 L 130.333 98.333 L 130.500 98.500 L 131.167 98.500 L 131.333 98.667 L 131.833 98.667 L 132.000 98.833 L 132.667 98.833 L 132.833 99.000 L 133.333 99.000 L 133.500 99.167 L 133.833 99.167 L 134.000 99.333 L 134.500 99.333 L 134.667 99.500 L 135.167 99.500 L 135.333 99.667 L 135.833 99.667 L 136.000 99.833 L 136.500 99.833 L 136.667 100.000 L 137.333 100.000 L 137.500 100.167 L 137.833 100.167 L 138.000 100.333 L 138.500 100.333 L 138.667 100.500 L 139.000 100.500 L 139.167 100.667 L 139.500 100.667 L 139.667 100.833 L 140.000 100.833 L 140.167 101.000 L 140.667 101.000 L 140.833 101.167 L 141.333 101.167 L 141.500 101.333 L 141.833 101.333 L 142.000 101.500 L 142.333 101.500 L 142.500 101.667 L 142.833 101.667 L 143.000 101.833 L 143.333 101.833 L 143.500 102.000 L 143.833 102.000 L 144.000 102.167 L 144.500 102.167 L 144.667 102.333 L 145.000 102.333 L 145.167 102.500 L 145.500 102.500 L 145.667 102.667 L 145.833 102.667 L 146.000 102.833 L 146.167 102.833 L 146.333 103.000 L 146.500 103.000 L 146.667 103.167 L 147.167 103.167 L 147.333 103.333 L 147.500 103.333 L 147.667 103.500 L 148.167 103.500 L 148.500 103.833 L 148.667 103.833 L 148.833 104.000 L 149.167 104.000 L 149.333 104.167 L 149.500 104.167 L 149.667 104.333 L 150.000 104.333 L 150.167 104.500 L 150.333 104.500 L 150.667 104.833 L 151.000 104.833 L 151.333 105.167 L 151.500 105.167 L 151.667 105.333 L 152.000 105.333 L 152.167 105.500 L 152.333 105.500 L 152.500 105.667 L 152.667 105.667 L 152.833 105.833 L 153.000 105.833 L 153.333 106.167 L 153.500 106.167 L 153.667 106.333 L 153.833 106.333 L 154.000 106.500 L 154.167 106.500 L 154.333 106.667 L 154.500 106.667 L 154.833 107.000 L 155.000 107.000 L 155.167 107.167 L 155.333 107.167 L 155.667 107.500 L 155.833 107.500 L 156.000 107.667 L 156.167 107.667 L 156.500 108.000 L 156.667 108.000 L 156.833 108.167 L 157.000 108.167 L 157.333 108.500 L 157.500 108.500 L 157.833 108.833 L 158.000 108.833 L 158.500 109.333 L 158.667 109.333 L 158.833 109.500 L 159.000 109.500 L 159.500 110.000 L 159.667 110.000 L 160.167 110.500 L 160.333 110.500 L 160.500 110.667 L 160.500 110.833 L 160.833 111.167 L 161.000 111.167 L 161.500 111.667 L 161.500 111.833 L 162.000 112.333 L 162.167 112.333 L 162.333 112.500 L 162.333 112.667 L 162.833 113.167 L 162.833 113.333 L 163.667 114.167 L 163.667 114.333 L 164.167 114.833 L 164.167 115.000 L 164.333 115.167 L 164.333 115.333 L 164.667 115.667 L 164.667 115.833 L 164.833 116.000 L 164.833 116.167 L 165.167 116.500 L 165.167 116.667 L 165.333 116.833 L 165.333 117.333 L 165.500 117.500 L 165.500 118.167 L 165.667 118.333 L 165.667 119.500 L 165.833 119.667 L 165.833 121.167 L 165.667 121.333 L 165.667 122.000 L 165.500 122.167 L 165.500 122.333 L 165.333 122.500 L 165.333 122.833 L 165.167 123.000 L 165.167 123.167 L 164.667 123.667 L 164.667 124.000 L 164.500 124.167 L 164.500 124.333 L 164.333 124.500 L 164.333 124.667 L 164.167 124.833 L 164.167 125.167 L 163.833 125.500 L 163.833 125.667 L 163.667 125.833 L 163.667 126.000 L 163.000 126.667 L 162.833 126.667 L 162.500 127.000 L 162.500 127.167 L 162.167 127.500 L 162.000 127.500 L 161.500 128.000 L 161.500 128.167 L 161.333 128.333 L 161.167 128.333 L 160.833 128.667 L 160.667 128.667 L 160.500 128.833 L 160.500 129.000 L 160.000 129.500 L 159.833 129.500 L 159.167 130.167 L 159.000 130.167 L 158.667 130.500 L 158.500 130.500 L 158.000 131.000 L 157.833 131.000 L 157.333 131.500 L 157.167 131.500 L 156.833 131.833 L 156.667 131.833 L 156.333 132.167 L 156.167 132.167 L 156.000 132.333 L 155.833 132.333 L 155.667 132.500 L 155.500 132.500 L 155.167 132.833 L 155.000 132.833 L 154.833 133.000 L 154.667 133.000 L 154.500 133.167 L 154.333 133.167 L 154.167 133.333 L 154.000 133.333 L 153.833 133.500 L 153.667 133.500 L 153.500 133.667 L 153.333 133.667 L 153.167 133.833 L 153.000 133.833 L 152.833 134.000 L 152.667 134.000 L 152.500 134.167 L 152.333 134.167 L 152.167 134.333 L 152.000 134.333 L 151.833 134.500 L 151.500 134.500 L 151.333 134.667 L 151.167 134.667 L 151.000 134.833 L 150.667 134.833 L 150.500 135.000 L 150.333 135.000 L 150.167 135.167 L 150.000 135.167 L 149.833 135.333 L 149.500 135.333 L 149.333 135.500 L 148.833 135.500 L 148.667 135.667 L 148.333 135.667 L 148.167 135.833 L 147.833 135.833 L 147.667 136.000 L 147.500 136.000 L 147.333 136.167 L 147.000 136.167 L 146.833 136.333 L 146.500 136.333 L 146.333 136.500 L 145.833 136.500 L 145.667 136.667 L 145.333 136.667 L 145.167 136.833 L 144.833 136.833 L 144.667 137.000 L 144.500 137.000 L 144.333 137.167 L 144.167 137.167 L 144.000 137.333 L 143.500 137.333 L 143.333 137.500 L 143.000 137.500 L 142.833 137.667 L 142.333 137.667 L 142.167 137.833 L 141.833 137.833 L 141.667 138.000 L 141.500 138.000 L 141.333 138.167 L 141.000 138.167 L 140.833 138.333 L 140.500 138.333 L 140.333 138.500 L 139.833 138.500 L 139.667 138.667 L 139.333 138.667 L 139.167 138.833 L 138.667 138.833 L 138.500 139.000 L 138.333 139.000 L 138.167 139.167 L 137.667 139.167 L 137.500 139.333 L 137.167 139.333 L 137.000 139.500 L 136.500 139.500 L 136.333 139.667 L 135.500 139.667 L 135.333 139.833 L 134.667 139.833 L 134.500 140.000 L 134.167 140.000 L 134.000 140.167 L 133.500 140.167 L 133.333 140.333 L 132.833 140.333 L 132.667 140.500 L 132.167 140.500 L 132.000 140.667 L 131.333 140.667 L 131.167 140.833 L 130.500 140.833 L 130.333 141.000 L 129.500 141.000 L 129.333 141.167 L 128.500 141.167 L 128.333 141.333 L 127.500 141.333 L 127.333 141.500 L 126.333 141.500 L 126.167 141.667 L 125.000 141.667 L 124.833 141.833 L 123.667 141.833 L 123.500 142.000 L 122.333 142.000 L 122.167 142.167 L 120.667 142.167 L 120.500 142.333 L 119.000 142.333 L 118.833 142.500 L 117.167 142.500 L 117.000 142.667 L 115.000 142.667 L 114.833 142.833 L 112.500 142.833 L 112.333 143.000 L 110.500 143.000 L 110.333 143.167 L 107.833 143.167 L 107.667 143.333 L 100.667 143.333 L 100.500 143.167 L 96.000 143.167 L 95.833 143.000 L 92.667 143.000 L 92.500 142.833 L 91.000 142.833 L 90.833 142.667 L 89.500 142.667 L 89.333 142.500 L 88.000 142.500 L 87.833 142.333 L 86.500 142.333 L 86.333 142.167 L 84.833 142.167 L 84.667 142.000 L 83.333 142.000 L 83.167 141.833 L 81.833 141.833 L 81.667 141.667 L 80.667 141.667 L 80.500 141.500 L 79.500 141.500 L 79.333 141.333 L 78.667 141.333 L 78.500 141.167 L 77.333 141.167 L 77.167 141.000 L 76.167 141.000 L 76.000 140.833 L 74.667 140.833 L 74.500 140.667 L 73.667 140.667 L 73.500 140.500 L 72.833 140.500 L 72.667 140.333 L 72.333 140.333 L 72.167 140.167 L 71.500 140.167 L 71.333 140.000 L 70.833 140.000 L 70.667 139.833 L 70.167 139.833 L 70.000 139.667 L 69.500 139.667 L 69.333 139.500 L 68.500 139.500 L 68.333 139.333 L 68.000 139.333 L 67.833 139.167 L 67.500 139.167 L 67.333 139.000 L 67.167 139.000 L 67.000 138.833 L 66.667 138.833 L 66.500 138.667 L 66.000 138.667 L 65.833 138.500 L 65.333 138.500 L 65.167 138.333 L 64.667 138.333 L 64.500 138.167 L 64.333 138.167 L 64.167 138.000 L 63.833 138.000 L 63.667 137.833 L 63.500 137.833 L 63.333 137.667 L 62.833 137.667 L 62.667 137.500 L 62.167 137.500 L 62.000 137.333 L 61.500 137.333 L 61.333 137.167 L 61.000 137.167 L 60.833 137.000 L 60.500 137.000 L 60.333 136.833 L 60.167 136.833 L 60.000 136.667 L 59.500 136.667 L 59.333 136.500 L 58.833 136.500 L 58.667 136.333 L 58.167 136.333 L 58.000 136.167 L 57.667 136.167 L 57.500 136.000 L 57.167 136.000 L 57.000 135.833 L 56.833 135.833 L 56.667 135.667 L 56.333 135.667 L 56.167 135.500 L 55.667 135.500 L 55.500 135.333 L 55.167 135.333 L 55.000 135.167 L 54.667 135.167 L 54.500 135.000 L 54.333 135.000 L 54.167 134.833 L 54.000 134.833 L 53.833 134.667 L 53.667 134.667 L 53.500 134.500 L 53.333 134.500 L 53.167 134.333 L 53.000 134.333 L 52.833 134.167 L 52.667 134.167 L 52.500 134.000 L 52.333 134.000 L 52.167 133.833 L 52.000 133.833 L 51.833 133.667 L 51.667 133.667 L 51.500 133.500 L 51.333 133.500 L 51.167 133.333 L 51.000 133.333 L 50.833 133.167 L 50.667 133.167 L 50.500 133.000 L 50.333 133.000 L 50.167 132.833 L 50.000 132.833 L 49.833 132.667 L 49.667 132.667 L 49.500 132.500 L 49.333 132.500 L 49.000 132.167 L 48.833 132.167 L 48.667 132.000 L 48.500 132.000 L 48.333 131.833 L 48.167 131.833 L 48.000 131.667 L 47.667 131.667 L 47.167 131.167 L 47.000 131.167 L 46.667 130.833 L 46.500 130.833 L 46.167 130.500 L 46.000 130.500 L 45.833 130.333 L 45.667 130.333 L 44.833 129.500 L 44.667 129.500 L 44.333 129.167 L 44.333 129.000 L 44.000 128.667 L 43.833 128.667 L 43.167 128.000 L 43.167 127.833 L 43.000 127.667 L 42.833 127.667 L 42.333 127.167 L 42.333 127.000 L 41.333 126.000 L 41.333 125.833 L 41.167 125.667 L 41.167 125.500 L 40.667 125.000 L 40.667 124.833 L 40.333 124.500 L 40.333 124.333 L 40.167 124.167 L 40.167 124.000 L 40.000 123.833 L 40.000 123.500 L 39.833 123.333 L 39.833 123.167 L 39.667 123.000 L 39.667 122.500 L 39.500 122.333 L 39.500 122.000 L 39.333 121.833 L 39.333 120.833 L 39.167 120.667 Z M 95.500 97.500 L 95.667 97.333 L 95.667 97.000 L 95.833 96.833 L 95.833 96.667 L 96.167 96.333 L 96.333 96.333 L 96.667 96.000 L 97.167 96.000 L 97.333 95.833 L 100.000 95.833 L 100.167 96.000 L 100.500 96.000 L 100.667 95.833 L 101.667 95.833 L 101.833 96.000 L 105.333 96.000 L 105.500 96.167 L 111.167 96.167 L 111.333 96.333 L 114.500 96.333 L 114.667 96.500 L 115.333 96.500 L 116.167 97.333 L 116.167 97.667 L 116.333 97.833 L 116.333 98.000 L 116.167 98.167 L 116.167 100.167 L 116.333 100.333 L 116.333 103.167 L 116.167 103.333 L 116.167 103.500 L 115.667 104.000 L 115.500 104.000 L 115.333 104.167 L 115.167 104.167 L 115.000 104.333 L 97.833 104.333 L 97.667 104.500 L 97.500 104.500 L 97.333 104.333 L 96.667 104.333 L 95.667 103.333 L 95.667 102.500 L 95.500 102.333 L 95.500 102.167 L 95.667 102.000 L 95.667 98.500 L 95.500 98.333 Z M 36.000 119.167 L 36.000 132.167 L 36.167 132.333 L 36.167 136.167 L 36.333 136.333 L 36.333 136.833 L 36.500 137.000 L 36.500 137.500 L 36.667 137.667 L 36.667 138.000 L 36.833 138.167 L 36.833 138.333 L 37.000 138.500 L 37.000 138.667 L 37.167 138.833 L 37.167 139.000 L 37.500 139.333 L 37.500 139.500 L 37.667 139.667 L 37.667 139.833 L 37.833 140.000 L 37.833 140.167 L 38.333 140.667 L 38.333 140.833 L 38.500 141.000 L 38.500 141.167 L 39.333 142.000 L 39.333 142.167 L 41.500 144.333 L 41.667 144.333 L 42.500 145.167 L 42.667 145.167 L 43.000 145.500 L 43.167 145.500 L 43.833 146.167 L 44.000 146.167 L 44.167 146.333 L 44.333 146.333 L 45.000 147.000 L 45.167 147.000 L 45.500 147.333 L 45.667 147.333 L 45.833 147.500 L 46.000 147.500 L 46.667 148.167 L 46.833 148.167 L 47.000 148.333 L 47.167 148.333 L 47.333 148.500 L 47.500 148.500 L 47.833 148.833 L 48.000 148.833 L 48.333 149.167 L 48.500 149.167 L 48.667 149.333 L 49.000 149.333 L 49.167 149.500 L 49.333 149.500 L 49.667 149.833 L 50.000 149.833 L 50.333 150.167 L 50.500 150.167 L 50.667 150.333 L 51.000 150.333 L 51.167 150.500 L 51.333 150.500 L 51.500 150.667 L 51.667 150.667 L 51.833 150.833 L 52.167 150.833 L 52.500 151.167 L 52.667 151.167 L 52.833 151.333 L 53.167 151.333 L 53.333 151.500 L 53.667 151.500 L 53.833 151.667 L 54.167 151.667 L 54.333 151.833 L 54.500 151.833 L 54.667 152.000 L 55.000 152.000 L 55.167 152.167 L 55.333 152.167 L 55.500 152.333 L 55.667 152.333 L 55.833 152.500 L 56.167 152.500 L 56.333 152.667 L 56.500 152.667 L 56.667 152.833 L 57.167 152.833 L 57.333 153.000 L 57.500 153.000 L 57.667 153.167 L 58.000 153.167 L 58.167 153.333 L 58.500 153.333 L 58.667 153.500 L 59.000 153.500 L 59.167 153.667 L 59.500 153.667 L 59.667 153.833 L 60.000 153.833 L 60.167 154.000 L 60.500 154.000 L 60.667 154.167 L 61.333 154.167 L 61.500 154.333 L 61.667 154.333 L 61.833 154.500 L 62.167 154.500 L 62.333 154.667 L 62.667 154.667 L 62.833 154.833 L 63.333 154.833 L 63.500 155.000 L 64.000 155.000 L 64.167 155.167 L 64.500 155.167 L 64.667 155.333 L 65.333 155.333 L 65.500 155.500 L 66.000 155.500 L 66.167 155.667 L 66.500 155.667 L 66.667 155.833 L 67.167 155.833 L 67.333 156.000 L 67.667 156.000 L 67.833 156.167 L 68.333 156.167 L 68.500 156.333 L 69.167 156.333 L 69.333 156.500 L 70.167 156.500 L 70.333 156.667 L 70.667 156.667 L 70.833 156.833 L 71.333 156.833 L 71.500 157.000 L 72.167 157.000 L 72.333 157.167 L 72.833 157.167 L 73.000 157.333 L 73.500 157.333 L 73.667 157.500 L 74.167 157.500 L 74.333 157.667 L 75.167 157.667 L 75.333 157.833 L 76.500 157.833 L 76.667 158.000 L 77.500 158.000 L 77.667 158.167 L 78.500 158.167 L 78.667 158.333 L 79.667 158.333 L 79.833 158.500 L 80.500 158.500 L 80.667 158.667 L 81.667 158.667 L 81.833 158.833 L 83.167 158.833 L 83.333 159.000 L 84.500 159.000 L 84.667 159.167 L 86.167 159.167 L 86.333 159.333 L 87.667 159.333 L 87.833 159.500 L 89.667 159.500 L 89.833 159.667 L 94.333 159.667 L 94.500 159.833 L 101.167 159.833 L 101.333 160.000 L 107.667 160.000 L 107.833 159.833 L 112.000 159.833 L 112.167 159.667 L 114.500 159.667 L 114.667 159.500 L 116.333 159.500 L 116.500 159.333 L 118.167 159.333 L 118.333 159.167 L 119.333 159.167 L 119.500 159.000 L 120.333 159.000 L 120.500 158.833 L 121.500 158.833 L 121.667 158.667 L 123.167 158.667 L 123.333 158.500 L 124.667 158.500 L 124.833 158.333 L 125.833 158.333 L 126.000 158.167 L 126.667 158.167 L 126.833 158.000 L 127.500 158.000 L 127.667 157.833 L 128.500 157.833 L 128.667 157.667 L 129.500 157.667 L 129.667 157.500 L 130.333 157.500 L 130.500 157.333 L 131.333 157.333 L 131.500 157.167 L 132.167 157.167 L 132.333 157.000 L 132.833 157.000 L 133.000 156.833 L 133.500 156.833 L 133.667 156.667 L 134.167 156.667 L 134.333 156.500 L 135.000 156.500 L 135.167 156.333 L 135.667 156.333 L 135.833 156.167 L 136.333 156.167 L 136.500 156.000 L 137.167 156.000 L 137.333 155.833 L 137.667 155.833 L 137.833 155.667 L 138.333 155.667 L 138.500 155.500 L 138.833 155.500 L 139.000 155.333 L 139.500 155.333 L 139.667 155.167 L 140.167 155.167 L 140.333 155.000 L 140.833 155.000 L 141.000 154.833 L 141.333 154.833 L 141.500 154.667 L 141.833 154.667 L 142.000 154.500 L 142.333 154.500 L 142.500 154.333 L 143.000 154.333 L 143.167 154.167 L 143.500 154.167 L 143.667 154.000 L 144.167 154.000 L 144.333 153.833 L 144.667 153.833 L 144.833 153.667 L 145.167 153.667 L 145.333 153.500 L 145.667 153.500 L 145.833 153.333 L 146.167 153.333 L 146.333 153.167 L 146.667 153.167 L 146.833 153.000 L 147.167 153.000 L 147.333 152.833 L 147.833 152.833 L 148.000 152.667 L 148.333 152.667 L 148.500 152.500 L 148.833 152.500 L 149.000 152.333 L 149.333 152.333 L 149.500 152.167 L 149.667 152.167 L 149.833 152.000 L 150.167 152.000 L 150.333 151.833 L 150.500 151.833 L 150.667 151.667 L 151.000 151.667 L 151.167 151.500 L 151.333 151.500 L 151.500 151.333 L 151.833 151.333 L 152.000 151.167 L 152.167 151.167 L 152.333 151.000 L 152.500 151.000 L 152.667 150.833 L 152.833 150.833 L 153.000 150.667 L 153.167 150.667 L 153.333 150.500 L 153.500 150.500 L 153.667 150.333 L 154.000 150.333 L 154.167 150.167 L 154.333 150.167 L 154.667 149.833 L 155.000 149.833 L 155.333 149.500 L 155.500 149.500 L 155.667 149.333 L 156.000 149.333 L 156.167 149.167 L 156.333 149.167 L 156.667 148.833 L 156.833 148.833 L 157.000 148.667 L 157.167 148.667 L 157.333 148.500 L 157.500 148.500 L 157.667 148.333 L 157.833 148.333 L 158.000 148.167 L 158.167 148.167 L 158.667 147.667 L 158.833 147.667 L 159.000 147.500 L 159.167 147.500 L 159.500 147.167 L 159.667 147.167 L 160.000 146.833 L 160.167 146.833 L 160.667 146.333 L 160.833 146.333 L 161.000 146.167 L 161.167 146.167 L 162.000 145.333 L 162.167 145.333 L 163.167 144.333 L 163.333 144.333 L 165.000 142.667 L 165.000 142.500 L 165.667 141.833 L 165.667 141.667 L 166.333 141.000 L 166.333 140.833 L 166.667 140.500 L 166.667 140.333 L 167.000 140.000 L 167.000 139.833 L 167.167 139.667 L 167.167 139.500 L 167.333 139.333 L 167.333 139.167 L 167.500 139.000 L 167.500 138.667 L 168.000 138.167 L 168.000 137.833 L 168.167 137.667 L 168.167 137.500 L 168.333 137.333 L 168.333 137.000 L 168.500 136.833 L 168.500 136.500 L 168.667 136.333 L 168.667 135.333 L 168.833 135.167 L 168.833 131.833 L 168.667 131.667 L 168.667 127.167 L 168.500 127.000 L 168.500 118.333 L 168.333 118.167 L 168.333 117.167 L 168.167 117.000 L 168.167 116.500 L 168.000 116.333 L 168.000 116.000 L 167.833 115.833 L 167.833 115.667 L 167.667 115.500 L 167.667 115.333 L 167.500 115.167 L 167.500 114.833 L 167.333 114.667 L 167.333 114.333 L 167.167 114.167 L 167.167 113.833 L 167.000 113.667 L 167.000 113.500 L 166.667 113.167 L 166.667 113.000 L 166.500 112.833 L 166.500 112.667 L 166.333 112.500 L 166.333 112.333 L 166.000 112.000 L 166.000 111.833 L 165.333 111.167 L 165.333 111.000 L 162.000 107.667 L 161.833 107.667 L 161.167 107.000 L 161.000 107.000 L 160.500 106.500 L 160.333 106.500 L 160.000 106.167 L 159.833 106.167 L 159.333 105.667 L 159.167 105.667 L 159.000 105.500 L 158.833 105.500 L 158.667 105.333 L 158.500 105.333 L 158.000 104.833 L 157.833 104.833 L 157.667 104.667 L 157.500 104.667 L 157.333 104.500 L 157.167 104.500 L 157.000 104.333 L 156.833 104.333 L 156.500 104.000 L 156.333 104.000 L 156.000 103.667 L 155.667 103.667 L 155.500 103.500 L 155.333 103.500 L 155.167 103.333 L 155.000 103.333 L 154.833 103.167 L 154.500 103.167 L 154.167 102.833 L 154.000 102.833 L 153.833 102.667 L 153.667 102.667 L 153.500 102.500 L 153.333 102.500 L 153.167 102.333 L 152.833 102.333 L 152.667 102.167 L 152.500 102.167 L 152.333 102.000 L 152.167 102.000 L 152.000 101.833 L 151.667 101.833 L 151.333 101.500 L 151.000 101.500 L 150.833 101.333 L 150.500 101.333 L 150.333 101.167 L 150.000 101.167 L 149.833 101.000 L 149.667 101.000 L 149.500 100.833 L 149.333 100.833 L 149.167 100.667 L 148.833 100.667 L 148.667 100.500 L 148.333 100.500 L 148.167 100.333 L 147.667 100.333 L 147.500 100.167 L 147.333 100.167 L 147.167 100.000 L 146.667 100.000 L 146.500 99.833 L 146.333 99.833 L 146.167 99.667 L 145.833 99.667 L 145.667 99.500 L 145.333 99.500 L 145.167 99.333 L 144.667 99.333 L 144.500 99.167 L 144.333 99.167 L 144.167 99.000 L 143.667 99.000 L 143.500 98.833 L 143.333 98.833 L 143.167 98.667 L 142.833 98.667 L 142.667 98.500 L 142.333 98.500 L 142.167 98.333 L 141.667 98.333 L 141.500 98.167 L 141.167 98.167 L 141.000 98.000 L 140.667 98.000 L 140.500 97.833 L 140.000 97.833 L 139.833 97.667 L 139.500 97.667 L 139.333 97.500 L 138.833 97.500 L 138.667 97.333 L 138.333 97.333 L 138.167 97.167 L 137.667 97.167 L 137.500 97.000 L 137.167 97.000 L 137.000 96.833 L 136.500 96.833 L 136.333 96.667 L 135.833 96.667 L 135.667 96.500 L 135.167 96.500 L 135.000 96.333 L 134.500 96.333 L 134.333 96.167 L 133.833 96.167 L 133.667 96.000 L 133.167 96.000 L 133.000 95.833 L 132.167 95.833 L 132.000 95.667 L 131.333 95.667 L 131.167 95.500 L 130.333 95.500 L 130.167 95.333 L 129.667 95.333 L 129.500 95.167 L 128.833 95.167 L 128.667 95.000 L 128.167 95.000 L 128.000 94.833 L 127.333 94.833 L 127.167 94.667 L 126.500 94.667 L 126.333 94.500 L 125.000 94.500 L 124.833 94.333 L 123.333 94.333 L 123.167 94.167 L 121.833 94.167 L 121.667 94.000 L 121.167 94.000 L 121.000 93.833 L 120.667 93.833 L 120.000 93.167 L 120.000 93.000 L 119.833 92.833 L 119.833 92.500 L 119.667 92.333 L 119.667 91.667 L 119.833 91.500 L 119.833 91.333 L 119.667 91.167 L 119.667 86.000 L 119.500 85.833 L 119.500 81.667 L 119.333 81.500 L 119.333 81.333 L 119.167 81.167 L 119.167 81.000 L 119.000 80.833 L 118.833 80.833 L 118.667 80.667 L 118.167 80.667 L 118.000 80.833 L 117.833 80.833 L 117.667 81.000 L 117.500 81.000 L 117.000 81.500 L 117.000 81.667 L 116.833 81.833 L 116.833 82.333 L 116.667 82.500 L 116.667 83.667 L 116.500 83.833 L 116.500 89.833 L 116.333 90.000 L 116.333 90.667 L 116.500 90.833 L 116.500 91.500 L 116.333 91.667 L 116.333 92.000 L 115.667 92.667 L 115.333 92.667 L 115.167 92.833 L 114.667 92.833 L 114.500 92.667 L 112.333 92.667 L 112.167 92.500 L 105.167 92.500 L 105.000 92.667 L 100.833 92.667 L 100.667 92.833 L 96.833 92.833 L 96.667 92.667 L 96.500 92.667 L 96.333 92.500 L 96.167 92.500 L 95.500 91.833 L 95.500 91.500 L 95.333 91.333 L 95.333 87.167 L 95.500 87.000 L 95.500 81.833 L 95.333 81.667 L 95.333 81.167 L 95.167 81.000 L 95.167 80.667 L 95.000 80.500 L 94.667 80.500 L 94.500 80.333 L 93.500 80.333 L 93.333 80.500 L 93.167 80.500 L 92.833 80.833 L 92.833 81.167 L 92.667 81.333 L 92.667 81.667 L 92.500 81.833 L 92.500 92.333 L 92.333 92.500 L 92.333 92.667 L 91.667 93.333 L 91.333 93.333 L 91.167 93.500 L 90.833 93.500 L 90.667 93.333 L 90.333 93.333 L 90.167 93.500 L 88.500 93.500 L 88.333 93.667 L 86.833 93.667 L 86.667 93.833 L 85.167 93.833 L 85.000 94.000 L 84.167 94.000 L 84.000 94.167 L 83.167 94.167 L 83.000 94.333 L 82.000 94.333 L 81.833 94.500 L 80.833 94.500 L 80.667 94.667 L 79.667 94.667 L 79.500 94.833 L 78.333 94.833 L 78.167 95.000 L 77.167 95.000 L 77.000 95.167 L 76.000 95.167 L 75.833 95.333 L 75.167 95.333 L 75.000 95.500 L 74.333 95.500 L 74.167 95.667 L 73.500 95.667 L 73.333 95.833 L 72.667 95.833 L 72.500 96.000 L 72.000 96.000 L 71.833 96.167 L 71.333 96.167 L 71.167 96.333 L 70.500 96.333 L 70.333 96.500 L 69.667 96.500 L 69.500 96.667 L 69.167 96.667 L 69.000 96.833 L 68.500 96.833 L 68.333 97.000 L 68.000 97.000 L 67.833 97.167 L 67.500 97.167 L 67.333 97.333 L 67.000 97.333 L 66.833 97.500 L 66.333 97.500 L 66.167 97.667 L 65.667 97.667 L 65.500 97.833 L 65.167 97.833 L 65.000 98.000 L 64.667 98.000 L 64.500 98.167 L 64.167 98.167 L 64.000 98.333 L 63.667 98.333 L 63.500 98.500 L 63.000 98.500 L 62.833 98.667 L 62.500 98.667 L 62.333 98.833 L 62.000 98.833 L 61.833 99.000 L 61.500 99.000 L 61.333 99.167 L 60.833 99.167 L 60.667 99.333 L 60.333 99.333 L 60.167 99.500 L 59.667 99.500 L 59.500 99.667 L 59.333 99.667 L 59.167 99.833 L 58.667 99.833 L 58.500 100.000 L 58.167 100.000 L 58.000 100.167 L 57.500 100.167 L 57.333 100.333 L 57.000 100.333 L 56.833 100.500 L 56.500 100.500 L 56.333 100.667 L 56.167 100.667 L 56.000 100.833 L 55.667 100.833 L 55.500 101.000 L 55.333 101.000 L 55.167 101.167 L 54.833 101.167 L 54.667 101.333 L 54.333 101.333 L 54.167 101.500 L 53.833 101.500 L 53.667 101.667 L 53.500 101.667 L 53.333 101.833 L 53.167 101.833 L 53.000 102.000 L 52.833 102.000 L 52.667 102.167 L 52.500 102.167 L 52.333 102.333 L 52.167 102.333 L 52.000 102.500 L 51.667 102.500 L 51.333 102.833 L 51.167 102.833 L 51.000 103.000 L 50.833 103.000 L 50.667 103.167 L 50.500 103.167 L 50.167 103.500 L 49.833 103.500 L 49.667 103.667 L 49.500 103.667 L 49.000 104.167 L 48.833 104.167 L 48.667 104.333 L 48.500 104.333 L 48.333 104.500 L 48.167 104.500 L 48.000 104.667 L 47.833 104.667 L 47.333 105.167 L 47.167 105.167 L 47.000 105.333 L 46.833 105.333 L 46.667 105.500 L 46.500 105.500 L 46.167 105.833 L 46.000 105.833 L 45.667 106.167 L 45.500 106.167 L 45.000 106.667 L 44.833 106.667 L 44.167 107.333 L 44.000 107.333 L 43.833 107.500 L 43.667 107.500 L 43.000 108.167 L 42.833 108.167 L 42.333 108.667 L 42.167 108.667 L 41.167 109.667 L 41.000 109.667 L 39.833 110.833 L 39.833 111.000 L 39.167 111.667 L 39.167 111.833 L 39.000 112.000 L 39.000 112.167 L 38.500 112.667 L 38.500 112.833 L 38.333 113.000 L 38.333 113.167 L 38.000 113.500 L 38.000 113.667 L 37.833 113.833 L 37.833 114.000 L 37.667 114.167 L 37.667 114.333 L 37.500 114.500 L 37.500 114.667 L 37.333 114.833 L 37.333 115.167 L 37.000 115.500 L 37.000 115.833 L 36.833 116.000 L 36.833 116.333 L 36.667 116.500 L 36.667 116.833 L 36.500 117.000 L 36.500 117.500 L 36.333 117.667 L 36.333 118.167 L 36.167 118.333 L 36.167 119.000 Z M 104.833 28.333 L 103.667 28.333 L 103.500 28.500 L 103.333 28.500 L 101.667 30.167 L 101.667 30.333 L 101.167 30.833 L 101.167 31.000 L 100.667 31.500 L 100.667 31.667 L 100.500 31.833 L 100.500 32.000 L 100.000 32.500 L 100.000 32.667 L 99.833 32.833 L 99.833 33.167 L 99.500 33.500 L 99.500 33.833 L 99.333 34.000 L 99.333 34.167 L 99.167 34.333 L 99.167 34.500 L 99.000 34.667 L 99.000 35.000 L 98.833 35.167 L 98.833 35.333 L 98.667 35.500 L 98.667 36.000 L 98.500 36.167 L 98.500 36.667 L 98.333 36.833 L 98.333 37.667 L 98.167 37.833 L 98.167 41.333 L 98.333 41.500 L 98.333 42.167 L 98.500 42.333 L 98.500 43.000 L 98.667 43.167 L 98.667 43.667 L 98.833 43.833 L 98.833 44.167 L 99.000 44.333 L 99.000 44.500 L 99.167 44.667 L 99.167 44.833 L 99.333 45.000 L 99.333 45.167 L 99.500 45.333 L 99.500 45.500 L 99.667 45.667 L 99.667 45.833 L 99.833 46.000 L 99.833 46.167 L 100.000 46.333 L 100.000 46.500 L 100.333 46.833 L 100.333 47.000 L 100.833 47.500 L 100.833 47.667 L 101.000 47.833 L 101.000 48.000 L 101.500 48.500 L 101.500 48.667 L 102.333 49.500 L 102.333 49.667 L 102.667 50.000 L 102.667 50.167 L 103.167 50.667 L 103.167 50.833 L 103.333 51.000 L 103.333 51.167 L 103.500 51.333 L 103.500 51.500 L 103.667 51.667 L 103.667 51.833 L 103.833 52.000 L 103.833 52.167 L 104.167 52.500 L 104.167 52.833 L 104.333 53.000 L 104.333 53.333 L 104.500 53.500 L 104.500 54.333 L 104.667 54.500 L 104.667 57.500 L 104.500 57.667 L 104.500 58.333 L 104.333 58.500 L 104.333 59.000 L 104.167 59.167 L 104.167 59.333 L 104.000 59.500 L 104.000 59.667 L 103.833 59.833 L 103.833 60.000 L 103.667 60.167 L 103.667 60.333 L 103.500 60.500 L 103.500 60.667 L 103.333 60.833 L 103.333 61.000 L 103.167 61.167 L 103.167 61.333 L 102.833 61.667 L 102.833 61.833 L 102.667 62.000 L 102.667 62.167 L 102.167 62.667 L 102.167 62.833 L 102.000 63.000 L 102.000 63.167 L 101.500 63.667 L 101.500 63.833 L 101.167 64.167 L 101.167 64.333 L 100.667 64.833 L 100.667 65.167 L 100.500 65.333 L 100.500 65.500 L 100.333 65.667 L 100.333 66.667 L 100.500 66.833 L 100.500 67.000 L 101.000 67.500 L 101.167 67.500 L 101.333 67.667 L 102.167 67.667 L 102.333 67.500 L 102.500 67.500 L 102.667 67.333 L 102.833 67.333 L 103.167 67.000 L 103.167 66.833 L 103.833 66.167 L 103.833 66.000 L 104.000 65.833 L 104.000 65.667 L 104.333 65.333 L 104.333 65.167 L 104.500 65.000 L 104.500 64.833 L 105.000 64.333 L 105.000 64.167 L 105.167 64.000 L 105.167 63.833 L 105.333 63.667 L 105.333 63.500 L 105.667 63.167 L 105.667 63.000 L 106.000 62.667 L 106.000 62.500 L 106.333 62.167 L 106.333 61.833 L 106.500 61.667 L 106.500 61.500 L 106.667 61.333 L 106.667 61.167 L 106.833 61.000 L 106.833 60.833 L 107.000 60.667 L 107.000 60.500 L 107.167 60.333 L 107.167 60.167 L 107.333 60.000 L 107.333 59.500 L 107.500 59.333 L 107.500 58.500 L 107.667 58.333 L 107.667 57.833 L 107.833 57.667 L 107.833 55.333 L 107.667 55.167 L 107.667 54.500 L 107.500 54.333 L 107.500 53.667 L 107.333 53.500 L 107.333 52.833 L 107.167 52.667 L 107.167 52.333 L 107.000 52.167 L 107.000 52.000 L 106.833 51.833 L 106.833 51.667 L 106.667 51.500 L 106.667 51.333 L 106.500 51.167 L 106.500 50.833 L 106.333 50.667 L 106.333 50.500 L 106.167 50.333 L 106.167 50.000 L 105.500 49.333 L 105.500 49.167 L 105.333 49.000 L 105.333 48.833 L 105.167 48.667 L 105.167 48.500 L 104.833 48.167 L 104.833 48.000 L 104.500 47.667 L 104.500 47.500 L 104.167 47.167 L 104.167 47.000 L 103.833 46.667 L 103.833 46.500 L 103.333 46.000 L 103.333 45.833 L 103.167 45.667 L 103.167 45.500 L 102.833 45.167 L 102.833 45.000 L 102.667 44.833 L 102.667 44.667 L 102.333 44.333 L 102.333 44.167 L 102.167 44.000 L 102.167 43.667 L 102.000 43.500 L 102.000 43.333 L 101.833 43.167 L 101.833 43.000 L 101.667 42.833 L 101.667 42.500 L 101.500 42.333 L 101.500 42.167 L 101.333 42.000 L 101.333 41.667 L 101.167 41.500 L 101.167 41.167 L 101.000 41.000 L 101.000 39.667 L 100.833 39.500 L 100.833 38.500 L 101.000 38.333 L 101.000 37.333 L 101.167 37.167 L 101.167 36.667 L 101.333 36.500 L 101.333 36.333 L 101.500 36.167 L 101.500 36.000 L 101.667 35.833 L 101.667 35.667 L 101.833 35.500 L 101.833 35.333 L 102.000 35.167 L 102.000 35.000 L 102.167 34.833 L 102.167 34.667 L 102.333 34.500 L 102.333 34.333 L 102.500 34.167 L 102.500 34.000 L 103.000 33.500 L 103.000 33.333 L 103.333 33.000 L 103.333 32.833 L 103.500 32.667 L 103.500 32.500 L 104.167 31.833 L 104.167 31.667 L 105.000 30.833 L 105.000 30.667 L 105.333 30.333 L 105.333 30.167 L 105.500 30.000 L 105.500 29.000 L 105.333 28.833 L 105.333 28.667 L 105.167 28.500 L 105.000 28.500 Z M 125.833 28.167 L 125.333 28.167 L 125.167 28.333 L 124.833 28.333 L 124.667 28.500 L 124.500 28.500 L 123.333 29.667 L 123.333 29.833 L 123.000 30.167 L 123.000 30.333 L 122.500 30.833 L 122.500 31.000 L 122.000 31.500 L 122.000 31.667 L 121.667 32.000 L 121.667 32.167 L 121.333 32.500 L 121.333 32.667 L 121.167 32.833 L 121.167 33.000 L 121.000 33.167 L 121.000 33.333 L 120.833 33.500 L 120.833 33.667 L 120.667 33.833 L 120.667 34.167 L 120.500 34.333 L 120.500 34.500 L 120.333 34.667 L 120.333 34.833 L 120.167 35.000 L 120.167 35.333 L 120.000 35.500 L 120.000 35.833 L 119.833 36.000 L 119.833 36.333 L 119.667 36.500 L 119.667 37.167 L 119.500 37.333 L 119.500 41.000 L 119.667 41.167 L 119.667 41.833 L 119.833 42.000 L 119.833 42.500 L 120.000 42.667 L 120.000 43.000 L 120.167 43.167 L 120.167 43.500 L 120.333 43.667 L 120.333 43.833 L 120.500 44.000 L 120.500 44.333 L 120.667 44.500 L 120.667 44.667 L 120.833 44.833 L 120.833 45.167 L 121.167 45.500 L 121.167 45.667 L 121.333 45.833 L 121.333 46.000 L 121.833 46.500 L 121.833 46.667 L 122.000 46.833 L 122.000 47.000 L 122.333 47.333 L 122.333 47.500 L 122.833 48.000 L 122.833 48.167 L 123.167 48.500 L 123.167 48.667 L 123.500 49.000 L 123.500 49.167 L 124.000 49.667 L 124.000 49.833 L 124.167 50.000 L 124.167 50.167 L 124.333 50.333 L 124.333 50.500 L 124.500 50.667 L 124.500 50.833 L 124.667 51.000 L 124.667 51.167 L 125.000 51.500 L 125.000 51.667 L 125.167 51.833 L 125.167 52.167 L 125.333 52.333 L 125.333 52.500 L 125.500 52.667 L 125.500 53.167 L 125.667 53.333 L 125.667 53.833 L 125.833 54.000 L 125.833 54.500 L 126.000 54.667 L 126.000 55.667 L 126.167 55.833 L 126.167 56.167 L 126.000 56.333 L 126.000 57.333 L 125.833 57.500 L 125.833 58.000 L 125.667 58.167 L 125.667 58.500 L 125.500 58.667 L 125.500 59.333 L 125.333 59.500 L 125.333 59.833 L 125.167 60.000 L 125.167 60.167 L 124.833 60.500 L 124.833 60.667 L 124.667 60.833 L 124.667 61.000 L 124.500 61.167 L 124.500 61.333 L 124.333 61.500 L 124.333 61.667 L 124.167 61.833 L 124.167 62.000 L 123.667 62.500 L 123.667 62.667 L 123.500 62.833 L 123.500 63.000 L 123.000 63.500 L 123.000 63.667 L 122.667 64.000 L 122.667 64.167 L 122.167 64.667 L 122.167 64.833 L 122.000 65.000 L 122.000 65.167 L 121.833 65.333 L 121.833 65.500 L 121.667 65.667 L 121.667 66.667 L 122.000 67.000 L 122.000 67.167 L 122.167 67.333 L 122.333 67.333 L 122.500 67.500 L 123.500 67.500 L 123.667 67.333 L 123.833 67.333 L 124.167 67.000 L 124.167 66.833 L 124.833 66.167 L 124.833 66.000 L 125.167 65.667 L 125.167 65.500 L 125.667 65.000 L 125.667 64.833 L 126.167 64.333 L 126.167 64.167 L 126.333 64.000 L 126.333 63.833 L 126.500 63.667 L 126.500 63.500 L 127.000 63.000 L 127.000 62.833 L 127.167 62.667 L 127.167 62.500 L 127.333 62.333 L 127.333 62.167 L 127.500 62.000 L 127.500 61.833 L 127.667 61.667 L 127.667 61.500 L 128.000 61.167 L 128.000 60.833 L 128.167 60.667 L 128.167 60.500 L 128.333 60.333 L 128.333 60.000 L 128.500 59.833 L 128.500 59.500 L 128.667 59.333 L 128.667 58.667 L 128.833 58.500 L 128.833 58.000 L 129.000 57.833 L 129.000 54.500 L 128.833 54.333 L 128.833 53.500 L 128.667 53.333 L 128.667 52.833 L 128.500 52.667 L 128.500 52.167 L 128.333 52.000 L 128.333 51.500 L 128.167 51.333 L 128.167 51.167 L 128.000 51.000 L 128.000 50.667 L 127.667 50.333 L 127.667 50.167 L 127.500 50.000 L 127.500 49.833 L 127.333 49.667 L 127.333 49.500 L 127.167 49.333 L 127.167 49.167 L 126.833 48.833 L 126.833 48.667 L 126.333 48.167 L 126.333 48.000 L 126.167 47.833 L 126.167 47.667 L 126.000 47.500 L 125.833 47.500 L 125.667 47.333 L 125.667 47.167 L 125.333 46.833 L 125.333 46.667 L 124.833 46.167 L 124.833 46.000 L 124.333 45.500 L 124.333 45.333 L 124.167 45.167 L 124.167 45.000 L 124.000 44.833 L 124.000 44.667 L 123.667 44.333 L 123.667 44.167 L 123.500 44.000 L 123.500 43.833 L 123.333 43.667 L 123.333 43.500 L 123.167 43.333 L 123.167 43.167 L 123.000 43.000 L 123.000 42.667 L 122.833 42.500 L 122.833 42.167 L 122.667 42.000 L 122.667 41.500 L 122.500 41.333 L 122.500 40.833 L 122.333 40.667 L 122.333 40.000 L 122.167 39.833 L 122.167 38.333 L 122.333 38.167 L 122.333 37.333 L 122.500 37.167 L 122.500 36.833 L 122.667 36.667 L 122.667 36.333 L 122.833 36.167 L 122.833 35.667 L 123.000 35.500 L 123.000 35.333 L 123.167 35.167 L 123.167 34.833 L 123.333 34.667 L 123.333 34.500 L 123.667 34.167 L 123.667 34.000 L 123.833 33.833 L 123.833 33.667 L 124.333 33.167 L 124.333 33.000 L 125.500 31.833 L 125.500 31.667 L 125.833 31.333 L 126.000 31.333 L 126.167 31.167 L 126.167 31.000 L 126.333 30.833 L 126.333 30.667 L 126.667 30.333 L 126.667 30.167 L 126.833 30.000 L 126.833 29.667 L 127.000 29.500 L 126.833 29.333 L 126.833 29.000 L 126.667 28.833 L 126.667 28.667 L 126.500 28.500 L 126.333 28.500 L 126.167 28.333 L 126.000 28.333 Z M 83.167 28.167 L 82.333 28.167 L 82.167 28.333 L 82.000 28.333 L 81.833 28.500 L 81.667 28.500 L 81.333 28.833 L 81.333 29.000 L 81.000 29.333 L 80.833 29.333 L 80.500 29.667 L 80.500 29.833 L 79.667 30.667 L 79.667 30.833 L 79.500 31.000 L 79.500 31.167 L 78.833 31.833 L 78.833 32.000 L 78.667 32.167 L 78.667 32.333 L 78.333 32.667 L 78.333 32.833 L 78.167 33.000 L 78.167 33.167 L 78.000 33.333 L 78.000 33.500 L 77.833 33.667 L 77.833 33.833 L 77.667 34.000 L 77.667 34.167 L 77.500 34.333 L 77.500 34.500 L 77.333 34.667 L 77.333 34.833 L 77.167 35.000 L 77.167 35.167 L 76.833 35.500 L 76.833 36.333 L 76.667 36.500 L 76.667 37.667 L 76.500 37.833 L 76.500 40.333 L 76.667 40.500 L 76.667 42.000 L 76.833 42.167 L 76.833 42.667 L 77.000 42.833 L 77.000 43.167 L 77.167 43.333 L 77.167 43.500 L 77.333 43.667 L 77.333 44.000 L 77.500 44.167 L 77.500 44.333 L 77.667 44.500 L 77.667 44.667 L 77.833 44.833 L 77.833 45.167 L 78.167 45.500 L 78.167 45.667 L 78.500 46.000 L 78.500 46.167 L 78.833 46.500 L 78.833 46.667 L 79.000 46.833 L 79.000 47.000 L 79.333 47.333 L 79.333 47.500 L 79.833 48.000 L 79.833 48.167 L 80.333 48.667 L 80.333 48.833 L 81.000 49.500 L 81.000 49.667 L 81.167 49.833 L 81.167 50.000 L 81.500 50.333 L 81.500 50.500 L 81.833 50.833 L 81.833 51.000 L 82.167 51.333 L 82.167 51.500 L 82.333 51.667 L 82.333 52.000 L 82.500 52.167 L 82.500 52.500 L 82.667 52.667 L 82.667 53.000 L 82.833 53.167 L 82.833 53.333 L 83.000 53.500 L 83.000 54.000 L 83.167 54.167 L 83.167 55.000 L 83.333 55.167 L 83.333 57.333 L 83.167 57.500 L 83.167 58.167 L 83.000 58.333 L 83.000 58.667 L 82.833 58.833 L 82.833 59.000 L 82.667 59.167 L 82.667 59.333 L 82.500 59.500 L 82.500 59.833 L 82.333 60.000 L 82.333 60.333 L 82.000 60.667 L 82.000 61.000 L 81.667 61.333 L 81.667 61.500 L 81.500 61.667 L 81.500 61.833 L 81.333 62.000 L 81.333 62.167 L 81.000 62.500 L 81.000 62.667 L 80.667 63.000 L 80.667 63.167 L 80.333 63.500 L 80.333 63.667 L 80.000 64.000 L 80.000 64.167 L 79.167 65.000 L 79.167 65.167 L 79.000 65.333 L 79.000 65.500 L 78.833 65.667 L 78.833 66.500 L 79.000 66.667 L 79.000 66.833 L 79.167 67.000 L 79.167 67.167 L 79.333 67.333 L 79.500 67.333 L 79.667 67.500 L 80.000 67.500 L 80.167 67.667 L 80.500 67.667 L 80.667 67.500 L 80.833 67.500 L 81.000 67.333 L 81.167 67.333 L 82.000 66.500 L 82.000 66.333 L 82.333 66.000 L 82.333 65.833 L 83.167 65.000 L 83.167 64.833 L 83.333 64.667 L 83.333 64.500 L 83.833 64.000 L 83.833 63.833 L 84.000 63.667 L 84.000 63.500 L 84.333 63.167 L 84.333 62.833 L 84.667 62.500 L 84.667 62.333 L 85.000 62.000 L 85.000 61.667 L 85.167 61.500 L 85.167 61.333 L 85.333 61.167 L 85.333 60.833 L 85.500 60.667 L 85.500 60.333 L 85.667 60.167 L 85.667 60.000 L 85.833 59.833 L 85.833 59.500 L 86.000 59.333 L 86.000 59.000 L 86.167 58.833 L 86.167 57.667 L 86.333 57.500 L 86.333 55.667 L 86.167 55.500 L 86.167 54.167 L 86.000 54.000 L 86.000 53.500 L 85.833 53.333 L 85.833 53.000 L 85.667 52.833 L 85.667 52.500 L 85.500 52.333 L 85.500 52.167 L 85.333 52.000 L 85.333 51.500 L 85.167 51.333 L 85.167 51.167 L 85.000 51.000 L 85.000 50.667 L 84.500 50.167 L 84.500 50.000 L 84.333 49.833 L 84.333 49.500 L 84.000 49.167 L 84.000 49.000 L 83.667 48.667 L 83.667 48.500 L 83.333 48.167 L 83.333 48.000 L 83.167 47.833 L 83.167 47.667 L 82.500 47.000 L 82.500 46.833 L 82.167 46.500 L 82.167 46.333 L 81.833 46.000 L 81.833 45.833 L 81.333 45.333 L 81.333 45.167 L 81.167 45.000 L 81.167 44.833 L 81.000 44.667 L 81.000 44.500 L 80.833 44.333 L 80.833 44.167 L 80.667 44.000 L 80.667 43.833 L 80.500 43.667 L 80.500 43.500 L 80.333 43.333 L 80.333 43.167 L 80.167 43.000 L 80.167 42.833 L 80.000 42.667 L 80.000 42.500 L 79.833 42.333 L 79.833 41.667 L 79.667 41.500 L 79.667 40.667 L 79.500 40.500 L 79.500 38.000 L 79.667 37.833 L 79.667 37.000 L 79.833 36.833 L 79.833 36.333 L 80.000 36.167 L 80.000 35.833 L 80.167 35.667 L 80.167 35.500 L 80.333 35.333 L 80.333 35.167 L 80.500 35.000 L 80.500 34.833 L 80.667 34.667 L 80.667 34.500 L 80.833 34.333 L 80.833 34.167 L 81.000 34.000 L 81.000 33.833 L 81.500 33.333 L 81.500 33.167 L 81.833 32.833 L 81.833 32.667 L 82.500 32.000 L 82.500 31.833 L 83.333 31.000 L 83.333 30.833 L 84.000 30.167 L 84.000 30.000 L 84.167 29.833 L 84.167 29.000 L 83.500 28.333 L 83.333 28.333 Z"
        fill="#B38B63"
        fill-rule="evenodd"
        clip-rule="evenodd"
        shape-rendering="geometricPrecision"/>
</svg>
