<?xml version="1.0" encoding="UTF-8"?>
<svg xmlns="http://www.w3.org/2000/svg"
     width="186" height="174"
     viewBox="0 0 186 174"
     fill="none">
  <path d="M 84.667 117.833 L 84.667 118.333 L 84.167 118.833 L 83.833 118.833 L 83.667 119.000 L 83.333 119.000 L 83.167 119.167 L 82.667 119.167 L 82.500 119.333 L 81.833 119.333 L 81.667 119.500 L 81.333 119.500 L 81.167 119.667 L 80.833 119.667 L 80.667 119.833 L 80.500 119.833 L 80.333 120.000 L 80.000 120.000 L 79.833 120.167 L 79.667 120.167 L 79.500 120.333 L 79.167 120.333 L 79.000 120.500 L 78.500 120.500 L 78.333 120.667 L 77.667 120.667 L 77.500 120.833 L 77.167 120.833 L 77.000 121.000 L 76.667 121.000 L 76.333 121.333 L 76.167 121.333 L 76.000 121.500 L 75.500 121.500 L 75.333 121.667 L 74.667 121.667 L 74.500 121.833 L 74.167 121.833 L 74.000 122.000 L 73.667 122.000 L 73.333 122.333 L 73.167 122.333 L 73.000 122.500 L 72.667 122.500 L 72.500 122.667 L 72.000 122.667 L 71.833 122.833 L 71.333 122.833 L 71.167 123.000 L 70.667 123.000 L 70.167 123.500 L 69.833 123.500 L 69.667 123.667 L 69.500 123.667 L 69.333 123.833 L 68.500 123.833 L 68.333 124.000 L 68.000 124.000 L 67.833 124.167 L 67.500 124.167 L 67.167 124.500 L 66.833 124.500 L 66.667 124.667 L 66.333 124.667 L 66.167 124.833 L 65.500 124.833 L 65.333 125.000 L 64.833 125.000 L 64.667 125.167 L 64.333 125.167 L 64.167 125.333 L 64.000 125.333 L 63.833 125.500 L 63.500 125.500 L 63.333 125.667 L 62.833 125.667 L 62.667 125.833 L 62.000 125.833 L 61.833 126.000 L 61.500 126.000 L 61.333 126.167 L 61.000 126.167 L 60.833 126.333 L 60.500 126.333 L 60.333 126.500 L 60.167 126.500 L 60.000 126.667 L 59.500 126.667 L 59.333 126.833 L 59.000 126.833 L 58.833 127.000 L 58.500 127.000 L 58.333 127.167 L 57.833 127.167 L 57.667 127.333 L 57.500 127.333 L 57.333 127.500 L 57.000 127.500 L 56.833 127.667 L 56.500 127.667 L 56.333 127.833 L 55.833 127.833 L 55.667 128.000 L 55.333 128.000 L 55.167 128.167 L 54.833 128.167 L 54.667 128.333 L 54.333 128.333 L 54.167 128.500 L 53.667 128.500 L 53.500 128.667 L 53.333 128.667 L 53.167 128.833 L 52.833 128.833 L 52.667 129.000 L 52.500 129.000 L 52.333 129.167 L 52.167 129.167 L 52.000 129.333 L 51.667 129.333 L 51.500 129.500 L 50.833 129.500 L 50.667 129.667 L 49.333 129.667 L 49.167 129.500 L 48.667 129.500 L 48.167 129.000 L 48.000 129.000 L 47.667 128.667 L 47.500 128.667 L 47.167 128.333 L 47.167 128.167 L 46.500 127.500 L 46.500 127.333 L 46.167 127.000 L 46.167 126.833 L 46.000 126.667 L 46.000 126.500 L 45.833 126.333 L 45.833 126.167 L 45.667 126.000 L 45.667 125.667 L 45.500 125.500 L 45.500 124.667 L 45.333 124.500 L 45.333 122.333 L 45.500 122.167 L 45.500 121.667 L 45.833 121.333 L 45.833 121.167 L 46.167 120.833 L 46.167 120.667 L 46.667 120.167 L 46.833 120.167 L 47.167 119.833 L 47.333 119.833 L 47.667 119.500 L 48.000 119.500 L 48.167 119.333 L 48.500 119.333 L 48.667 119.167 L 49.167 119.167 L 49.333 119.000 L 49.833 119.000 L 50.000 118.833 L 50.333 118.833 L 50.500 118.667 L 50.833 118.667 L 51.000 118.500 L 51.333 118.500 L 51.500 118.333 L 52.167 118.333 L 52.333 118.167 L 52.833 118.167 L 53.000 118.000 L 53.333 118.000 L 53.500 117.833 L 53.667 117.833 L 53.833 117.667 L 54.167 117.667 L 54.333 117.500 L 54.500 117.500 L 54.667 117.333 L 55.167 117.333 L 55.333 117.167 L 55.667 117.167 L 55.833 117.000 L 56.167 117.000 L 56.333 116.833 L 56.500 116.833 L 56.667 116.667 L 56.833 116.667 L 57.000 116.500 L 57.333 116.500 L 57.500 116.333 L 57.667 116.333 L 57.833 116.167 L 58.333 116.167 L 58.500 116.000 L 58.833 116.000 L 59.000 115.833 L 59.167 115.833 L 59.500 115.500 L 59.667 115.500 L 59.833 115.333 L 60.167 115.333 L 60.333 115.167 L 60.833 115.167 L 61.000 115.000 L 61.833 115.000 L 62.000 114.833 L 62.333 114.833 L 62.500 114.667 L 62.667 114.667 L 62.833 114.500 L 63.167 114.500 L 63.333 114.333 L 63.500 114.333 L 63.667 114.167 L 64.167 114.167 L 64.333 114.000 L 65.000 114.000 L 65.167 113.833 L 65.500 113.833 L 65.667 113.667 L 66.000 113.667 L 66.167 113.500 L 66.333 113.500 L 66.667 113.167 L 67.000 113.167 L 67.167 113.000 L 67.667 113.000 L 67.833 112.833 L 70.000 112.833 L 70.167 113.000 L 70.667 113.000 L 70.833 113.167 L 71.167 113.167 L 71.333 113.333 L 71.500 113.333 L 71.667 113.500 L 71.833 113.500 L 72.000 113.667 L 72.167 113.667 L 72.333 113.833 L 72.667 113.833 L 72.833 114.000 L 73.500 114.000 L 73.667 114.167 L 74.167 114.167 L 74.333 114.333 L 74.500 114.333 L 74.667 114.500 L 74.833 114.500 L 75.000 114.667 L 75.167 114.667 L 75.333 114.833 L 75.500 114.833 L 75.667 115.000 L 76.167 115.000 L 76.333 115.167 L 76.833 115.167 L 77.000 115.333 L 77.333 115.333 L 77.500 115.500 L 77.667 115.500 L 77.833 115.667 L 78.167 115.667 L 78.500 116.000 L 79.000 116.000 L 79.167 116.167 L 79.833 116.167 L 80.000 116.333 L 80.500 116.333 L 80.667 116.500 L 81.000 116.500 L 81.167 116.667 L 81.333 116.667 L 81.500 116.833 L 81.833 116.833 L 82.000 117.000 L 82.500 117.000 L 82.667 117.167 L 83.333 117.167 L 83.500 117.333 L 84.000 117.333 L 84.167 117.500 L 84.333 117.500 Z M 138.833 96.667 L 138.833 97.833 L 139.000 98.000 L 138.833 98.167 L 138.833 99.167 L 138.667 99.333 L 138.667 99.833 L 138.500 100.000 L 138.500 100.333 L 137.833 101.000 L 137.833 101.167 L 137.333 101.667 L 137.167 101.667 L 136.833 102.000 L 136.667 102.000 L 136.167 102.500 L 135.833 102.500 L 135.667 102.667 L 134.500 102.667 L 134.333 102.833 L 133.667 102.833 L 133.500 103.000 L 133.333 103.000 L 133.167 103.167 L 132.833 103.167 L 132.667 103.333 L 132.500 103.333 L 132.333 103.500 L 132.000 103.500 L 131.833 103.667 L 131.333 103.667 L 131.167 103.833 L 130.500 103.833 L 130.333 104.000 L 129.833 104.000 L 129.667 104.167 L 129.500 104.167 L 129.333 104.333 L 129.167 104.333 L 129.000 104.500 L 128.500 104.500 L 128.333 104.667 L 127.833 104.667 L 127.667 104.833 L 127.167 104.833 L 127.000 105.000 L 126.667 105.000 L 126.500 105.167 L 126.333 105.167 L 126.167 105.333 L 126.000 105.333 L 125.833 105.500 L 125.500 105.500 L 125.333 105.667 L 125.000 105.667 L 124.833 105.833 L 124.500 105.833 L 124.333 106.000 L 123.667 106.000 L 123.500 106.167 L 123.333 106.167 L 123.167 106.333 L 123.000 106.333 L 122.833 106.500 L 122.500 106.500 L 122.333 106.667 L 122.000 106.667 L 121.833 106.833 L 121.333 106.833 L 121.167 107.000 L 120.833 107.000 L 120.667 107.167 L 120.333 107.167 L 120.167 107.333 L 120.000 107.333 L 119.833 107.500 L 119.333 107.500 L 119.167 107.667 L 118.833 107.667 L 118.667 107.833 L 118.333 107.833 L 118.167 108.000 L 117.833 108.000 L 117.667 108.167 L 117.500 108.167 L 117.333 108.333 L 116.833 108.333 L 116.667 108.500 L 115.833 108.500 L 115.667 108.667 L 115.167 108.667 L 115.000 108.500 L 114.167 108.500 L 114.000 108.333 L 113.500 108.333 L 113.333 108.167 L 113.167 108.167 L 113.000 108.000 L 112.667 108.000 L 112.500 107.833 L 112.167 107.833 L 112.000 107.667 L 111.500 107.667 L 111.333 107.500 L 111.167 107.500 L 111.000 107.333 L 110.667 107.333 L 110.500 107.167 L 110.333 107.167 L 110.167 107.000 L 109.667 107.000 L 109.500 106.833 L 109.000 106.833 L 108.833 106.667 L 108.333 106.667 L 108.167 106.500 L 107.667 106.500 L 107.500 106.333 L 107.333 106.333 L 107.167 106.167 L 107.000 106.167 L 106.833 106.000 L 106.500 106.000 L 106.333 105.833 L 106.000 105.833 L 105.833 105.667 L 105.333 105.667 L 105.167 105.500 L 104.833 105.500 L 104.667 105.333 L 104.500 105.333 L 104.333 105.167 L 104.167 105.167 L 104.000 105.000 L 103.833 105.000 L 103.667 104.833 L 103.333 104.833 L 103.167 104.667 L 102.500 104.667 L 102.333 104.500 L 101.833 104.500 L 101.667 104.333 L 101.333 104.333 L 101.167 104.167 L 100.500 104.167 L 100.333 104.000 L 100.167 104.000 L 100.000 103.833 L 99.833 103.833 L 99.500 103.500 L 99.500 103.333 L 99.667 103.167 L 99.833 103.167 L 100.000 103.000 L 100.167 103.000 L 100.333 102.833 L 100.667 102.833 L 100.833 102.667 L 101.333 102.667 L 101.500 102.500 L 101.667 102.500 L 101.833 102.333 L 102.167 102.333 L 102.333 102.167 L 102.500 102.167 L 102.667 102.000 L 103.167 102.000 L 103.333 101.833 L 103.500 101.833 L 103.667 101.667 L 104.000 101.667 L 104.167 101.500 L 104.333 101.500 L 104.500 101.333 L 104.833 101.333 L 105.000 101.167 L 105.333 101.167 L 105.500 101.000 L 106.000 101.000 L 106.167 100.833 L 106.500 100.833 L 106.667 100.667 L 107.000 100.667 L 107.167 100.500 L 107.333 100.500 L 107.500 100.333 L 108.000 100.333 L 108.167 100.167 L 108.333 100.167 L 108.500 100.000 L 108.833 100.000 L 109.000 99.833 L 109.333 99.833 L 109.500 99.667 L 110.000 99.667 L 110.167 99.500 L 110.500 99.500 L 110.667 99.333 L 111.333 99.333 L 111.500 99.167 L 111.833 99.167 L 112.000 99.000 L 112.333 99.000 L 112.500 98.833 L 112.667 98.833 L 112.833 98.667 L 113.167 98.667 L 113.333 98.500 L 113.500 98.500 L 113.667 98.333 L 114.333 98.333 L 114.500 98.167 L 115.000 98.167 L 115.167 98.000 L 115.333 98.000 L 115.500 97.833 L 115.833 97.833 L 116.000 97.667 L 116.333 97.667 L 116.500 97.500 L 116.667 97.500 L 116.833 97.333 L 117.500 97.333 L 117.667 97.167 L 118.167 97.167 L 118.333 97.000 L 118.667 97.000 L 118.833 96.833 L 119.000 96.833 L 119.167 96.667 L 119.333 96.667 L 119.500 96.500 L 119.667 96.500 L 119.833 96.333 L 120.333 96.333 L 120.500 96.167 L 121.000 96.167 L 121.167 96.000 L 121.500 96.000 L 121.667 95.833 L 122.000 95.833 L 122.167 95.667 L 122.333 95.667 L 122.667 95.333 L 123.000 95.333 L 123.167 95.167 L 123.667 95.167 L 123.833 95.000 L 124.500 95.000 L 124.667 94.833 L 125.000 94.833 L 125.167 94.667 L 125.333 94.667 L 125.500 94.500 L 125.667 94.500 L 125.833 94.333 L 126.333 94.333 L 126.500 94.167 L 126.833 94.167 L 127.000 94.000 L 127.333 94.000 L 127.500 93.833 L 128.000 93.833 L 128.167 93.667 L 128.333 93.667 L 128.500 93.500 L 128.667 93.500 L 128.833 93.333 L 129.333 93.333 L 129.500 93.167 L 129.667 93.167 L 129.833 93.000 L 130.333 93.000 L 130.500 92.833 L 131.000 92.833 L 131.167 92.667 L 131.333 92.667 L 131.500 92.500 L 132.000 92.500 L 132.167 92.333 L 132.500 92.333 L 132.667 92.167 L 133.333 92.167 L 133.500 92.000 L 135.167 92.000 L 135.333 92.167 L 135.667 92.167 L 135.833 92.333 L 136.167 92.333 L 137.667 93.833 L 137.667 94.000 L 138.000 94.333 L 138.000 94.500 L 138.167 94.667 L 138.167 94.833 L 138.333 95.000 L 138.333 95.333 L 138.500 95.500 L 138.500 95.833 L 138.667 96.000 L 138.667 96.500 Z M 45.833 95.833 L 46.000 95.667 L 46.000 95.333 L 46.167 95.167 L 46.167 94.833 L 46.333 94.667 L 46.333 94.500 L 46.833 94.000 L 46.833 93.833 L 47.833 92.833 L 48.000 92.833 L 48.500 92.333 L 48.667 92.333 L 48.833 92.167 L 49.333 92.167 L 49.500 92.000 L 50.167 92.000 L 50.333 92.167 L 51.333 92.167 L 51.500 92.333 L 51.833 92.333 L 52.000 92.500 L 52.333 92.500 L 52.500 92.667 L 52.667 92.667 L 52.833 92.833 L 53.167 92.833 L 53.333 93.000 L 53.833 93.000 L 54.000 93.167 L 54.333 93.167 L 54.500 93.333 L 55.000 93.333 L 55.167 93.500 L 55.333 93.500 L 55.500 93.667 L 55.667 93.667 L 55.833 93.833 L 56.167 93.833 L 56.333 94.000 L 57.000 94.000 L 57.167 94.167 L 57.667 94.167 L 57.833 94.333 L 58.167 94.333 L 58.333 94.500 L 58.500 94.500 L 58.667 94.667 L 58.833 94.667 L 59.000 94.833 L 59.333 94.833 L 59.500 95.000 L 60.167 95.000 L 60.333 95.167 L 60.833 95.167 L 61.000 95.333 L 61.333 95.333 L 61.500 95.500 L 61.667 95.500 L 61.833 95.667 L 62.167 95.667 L 62.333 95.833 L 62.667 95.833 L 62.833 96.000 L 63.333 96.000 L 63.500 96.167 L 64.000 96.167 L 64.167 96.333 L 64.500 96.333 L 64.667 96.500 L 65.000 96.500 L 65.167 96.667 L 65.333 96.667 L 65.500 96.833 L 65.667 96.833 L 65.833 97.000 L 66.167 97.000 L 66.333 97.167 L 66.833 97.167 L 67.000 97.333 L 67.333 97.333 L 67.500 97.500 L 67.833 97.500 L 68.000 97.667 L 68.333 97.667 L 68.500 97.833 L 68.667 97.833 L 68.833 98.000 L 69.333 98.000 L 69.500 98.167 L 70.000 98.167 L 70.167 98.333 L 70.667 98.333 L 70.833 98.500 L 71.333 98.500 L 71.500 98.667 L 71.667 98.667 L 71.833 98.833 L 72.167 98.833 L 72.333 99.000 L 72.500 99.000 L 72.667 99.167 L 73.167 99.167 L 73.333 99.333 L 73.833 99.333 L 74.000 99.500 L 74.333 99.500 L 74.500 99.667 L 75.000 99.667 L 75.167 99.833 L 75.500 99.833 L 75.667 100.000 L 76.167 100.000 L 76.333 100.167 L 76.667 100.167 L 76.833 100.333 L 77.333 100.333 L 77.500 100.500 L 77.833 100.500 L 78.000 100.667 L 78.333 100.667 L 78.500 100.833 L 78.833 100.833 L 79.000 101.000 L 79.333 101.000 L 79.500 101.167 L 79.833 101.167 L 80.000 101.333 L 80.333 101.333 L 80.500 101.500 L 80.667 101.500 L 80.833 101.667 L 81.333 101.667 L 81.500 101.833 L 82.000 101.833 L 82.167 102.000 L 82.500 102.000 L 82.667 102.167 L 83.000 102.167 L 83.167 102.333 L 83.333 102.333 L 83.500 102.500 L 83.833 102.500 L 84.000 102.667 L 84.333 102.667 L 84.500 102.833 L 84.833 102.833 L 85.000 103.000 L 85.500 103.000 L 85.667 103.167 L 86.000 103.167 L 86.167 103.333 L 86.333 103.333 L 86.500 103.500 L 86.667 103.500 L 86.833 103.667 L 87.167 103.667 L 87.333 103.833 L 87.667 103.833 L 87.833 104.000 L 88.500 104.000 L 88.667 104.167 L 89.333 104.167 L 89.500 104.333 L 89.667 104.333 L 89.833 104.500 L 90.000 104.500 L 90.167 104.667 L 90.333 104.667 L 90.500 104.833 L 90.833 104.833 L 91.000 105.000 L 91.667 105.000 L 91.833 105.167 L 92.333 105.167 L 92.500 105.333 L 93.000 105.333 L 93.167 105.500 L 93.333 105.500 L 93.667 105.833 L 94.000 105.833 L 94.167 106.000 L 94.500 106.000 L 94.667 106.167 L 95.333 106.167 L 95.500 106.333 L 96.000 106.333 L 96.167 106.500 L 96.333 106.500 L 96.500 106.667 L 96.667 106.667 L 96.833 106.833 L 97.167 106.833 L 97.333 107.000 L 97.667 107.000 L 97.833 107.167 L 98.333 107.167 L 98.500 107.333 L 98.833 107.333 L 99.000 107.500 L 99.333 107.500 L 99.500 107.667 L 99.667 107.667 L 99.833 107.833 L 100.167 107.833 L 100.333 108.000 L 100.500 108.000 L 100.667 108.167 L 101.167 108.167 L 101.333 108.333 L 101.833 108.333 L 102.000 108.500 L 102.333 108.500 L 102.500 108.667 L 102.833 108.667 L 103.000 108.833 L 103.333 108.833 L 103.500 109.000 L 103.833 109.000 L 104.000 109.167 L 104.333 109.167 L 104.500 109.333 L 105.000 109.333 L 105.167 109.500 L 105.500 109.500 L 105.667 109.667 L 106.167 109.667 L 106.333 109.833 L 106.500 109.833 L 106.667 110.000 L 107.000 110.000 L 107.167 110.167 L 107.333 110.167 L 107.500 110.333 L 107.833 110.333 L 108.000 110.500 L 108.333 110.500 L 108.500 110.667 L 108.833 110.667 L 109.000 110.833 L 109.333 110.833 L 109.500 111.000 L 109.833 111.000 L 110.000 111.167 L 110.333 111.167 L 110.500 111.333 L 110.833 111.333 L 111.000 111.500 L 111.333 111.500 L 111.500 111.667 L 111.667 111.667 L 111.833 111.833 L 112.333 111.833 L 112.500 112.000 L 113.000 112.000 L 113.167 112.167 L 113.500 112.167 L 113.667 112.333 L 114.000 112.333 L 114.167 112.500 L 114.333 112.500 L 114.500 112.667 L 115.000 112.667 L 115.167 112.833 L 115.667 112.833 L 115.833 113.000 L 116.333 113.000 L 116.500 113.167 L 117.000 113.167 L 117.167 113.333 L 117.333 113.333 L 117.667 113.667 L 117.833 113.667 L 118.000 113.833 L 118.500 113.833 L 118.667 114.000 L 119.333 114.000 L 119.500 114.167 L 119.833 114.167 L 120.000 114.333 L 120.333 114.333 L 120.667 114.667 L 120.833 114.667 L 121.000 114.833 L 121.333 114.833 L 121.500 115.000 L 122.167 115.000 L 122.333 115.167 L 123.000 115.167 L 123.167 115.333 L 123.333 115.333 L 123.500 115.500 L 123.833 115.500 L 124.000 115.667 L 124.167 115.667 L 124.333 115.833 L 124.500 115.833 L 124.667 116.000 L 125.000 116.000 L 125.167 116.167 L 125.500 116.167 L 125.667 116.333 L 126.333 116.333 L 126.500 116.500 L 126.667 116.500 L 126.833 116.667 L 127.000 116.667 L 127.167 116.833 L 127.333 116.833 L 127.500 117.000 L 127.833 117.000 L 128.000 117.167 L 128.500 117.167 L 128.667 117.333 L 129.333 117.333 L 129.500 117.500 L 129.833 117.500 L 130.000 117.667 L 130.333 117.667 L 130.500 117.833 L 130.833 117.833 L 131.000 118.000 L 131.333 118.000 L 131.500 118.167 L 132.167 118.167 L 132.333 118.333 L 132.833 118.333 L 133.000 118.500 L 133.500 118.500 L 133.667 118.667 L 134.000 118.667 L 134.167 118.833 L 134.333 118.833 L 134.500 119.000 L 134.833 119.000 L 135.000 119.167 L 135.333 119.167 L 135.500 119.333 L 136.000 119.333 L 136.167 119.500 L 136.333 119.500 L 136.500 119.667 L 136.667 119.667 L 136.833 119.833 L 137.000 119.833 L 137.167 120.000 L 137.333 120.000 L 137.833 120.500 L 138.000 120.500 L 138.333 120.833 L 138.333 121.000 L 138.500 121.167 L 138.500 121.333 L 138.667 121.500 L 138.667 122.000 L 138.833 122.167 L 138.833 124.333 L 138.667 124.500 L 138.667 125.333 L 138.500 125.500 L 138.500 125.833 L 138.333 126.000 L 138.333 126.167 L 138.167 126.333 L 138.167 126.500 L 137.833 126.833 L 137.833 127.000 L 137.667 127.167 L 137.667 127.333 L 137.333 127.667 L 137.333 127.833 L 136.000 129.167 L 135.833 129.167 L 135.667 129.333 L 135.500 129.333 L 135.333 129.500 L 133.667 129.500 L 133.500 129.333 L 133.167 129.333 L 133.000 129.167 L 132.667 129.167 L 132.500 129.000 L 132.167 129.000 L 132.000 128.833 L 131.500 128.833 L 131.333 128.667 L 130.833 128.667 L 130.667 128.500 L 130.333 128.500 L 130.167 128.333 L 129.667 128.333 L 129.500 128.167 L 129.167 128.167 L 129.000 128.000 L 128.500 128.000 L 128.333 127.833 L 128.000 127.833 L 127.833 127.667 L 127.333 127.667 L 127.167 127.500 L 126.833 127.500 L 126.667 127.333 L 126.500 127.333 L 126.333 127.167 L 126.000 127.167 L 125.833 127.000 L 125.500 127.000 L 125.333 126.833 L 124.667 126.833 L 124.500 126.667 L 124.333 126.667 L 124.167 126.500 L 123.833 126.500 L 123.667 126.333 L 123.500 126.333 L 123.333 126.167 L 123.000 126.167 L 122.833 126.000 L 122.333 126.000 L 122.167 125.833 L 121.500 125.833 L 121.333 125.667 L 121.000 125.667 L 120.833 125.500 L 120.500 125.500 L 120.167 125.167 L 119.833 125.167 L 119.667 125.000 L 119.333 125.000 L 119.167 124.833 L 118.500 124.833 L 118.333 124.667 L 117.833 124.667 L 117.667 124.500 L 117.500 124.500 L 117.167 124.167 L 116.833 124.167 L 116.667 124.000 L 116.333 124.000 L 116.167 123.833 L 115.500 123.833 L 115.333 123.667 L 114.667 123.667 L 114.333 123.333 L 114.167 123.333 L 114.000 123.167 L 113.833 123.167 L 113.667 123.000 L 113.333 123.000 L 113.167 122.833 L 112.667 122.833 L 112.500 122.667 L 111.833 122.667 L 111.667 122.500 L 111.333 122.500 L 111.167 122.333 L 111.000 122.333 L 110.833 122.167 L 110.667 122.167 L 110.500 122.000 L 110.333 122.000 L 110.167 121.833 L 109.833 121.833 L 109.667 121.667 L 109.000 121.667 L 108.833 121.500 L 108.500 121.500 L 108.333 121.333 L 107.833 121.333 L 107.667 121.167 L 107.500 121.167 L 107.333 121.000 L 107.167 121.000 L 107.000 120.833 L 106.667 120.833 L 106.500 120.667 L 105.833 120.667 L 105.667 120.500 L 105.167 120.500 L 105.000 120.333 L 104.667 120.333 L 104.500 120.167 L 104.333 120.167 L 104.167 120.000 L 104.000 120.000 L 103.833 119.833 L 103.500 119.833 L 103.333 119.667 L 102.833 119.667 L 102.667 119.500 L 102.333 119.500 L 102.167 119.333 L 101.667 119.333 L 101.500 119.167 L 101.333 119.167 L 101.167 119.000 L 100.833 119.000 L 100.667 118.833 L 100.333 118.833 L 100.167 118.667 L 99.833 118.667 L 99.667 118.500 L 99.167 118.500 L 99.000 118.333 L 98.500 118.333 L 98.333 118.167 L 97.833 118.167 L 97.667 118.000 L 97.333 118.000 L 97.167 117.833 L 96.833 117.833 L 96.667 117.667 L 96.333 117.667 L 96.167 117.500 L 95.667 117.500 L 95.500 117.333 L 95.333 117.333 L 95.167 117.167 L 94.667 117.167 L 94.500 117.000 L 94.167 117.000 L 94.000 116.833 L 93.500 116.833 L 93.333 116.667 L 93.000 116.667 L 92.833 116.500 L 92.500 116.500 L 92.333 116.333 L 92.000 116.333 L 91.833 116.167 L 91.500 116.167 L 91.333 116.000 L 91.000 116.000 L 90.833 115.833 L 90.333 115.833 L 90.167 115.667 L 89.833 115.667 L 89.667 115.500 L 89.500 115.500 L 89.333 115.333 L 89.167 115.333 L 89.000 115.167 L 88.667 115.167 L 88.500 115.000 L 88.333 115.000 L 88.167 114.833 L 87.500 114.833 L 87.333 114.667 L 87.000 114.667 L 86.833 114.500 L 86.500 114.500 L 86.167 114.167 L 85.833 114.167 L 85.667 114.000 L 85.333 114.000 L 85.167 113.833 L 84.667 113.833 L 84.500 113.667 L 83.833 113.667 L 83.667 113.500 L 83.500 113.500 L 83.333 113.333 L 83.167 113.333 L 83.000 113.167 L 82.833 113.167 L 82.667 113.000 L 82.500 113.000 L 82.333 112.833 L 81.667 112.833 L 81.500 112.667 L 80.833 112.667 L 80.667 112.500 L 80.333 112.500 L 80.167 112.333 L 80.000 112.333 L 79.833 112.167 L 79.667 112.167 L 79.500 112.000 L 79.333 112.000 L 79.167 111.833 L 78.833 111.833 L 78.667 111.667 L 78.000 111.667 L 77.833 111.500 L 77.500 111.500 L 77.333 111.333 L 76.833 111.333 L 76.667 111.167 L 76.500 111.167 L 76.333 111.000 L 76.167 111.000 L 76.000 110.833 L 75.667 110.833 L 75.500 110.667 L 74.833 110.667 L 74.667 110.500 L 74.333 110.500 L 74.167 110.333 L 73.667 110.333 L 73.500 110.167 L 73.333 110.167 L 73.167 110.000 L 73.000 110.000 L 72.833 109.833 L 72.500 109.833 L 72.333 109.667 L 71.667 109.667 L 71.500 109.500 L 71.000 109.500 L 70.833 109.333 L 70.500 109.333 L 70.333 109.167 L 70.000 109.167 L 69.833 109.000 L 69.500 109.000 L 69.333 108.833 L 68.833 108.833 L 68.667 108.667 L 68.333 108.667 L 68.167 108.500 L 67.667 108.500 L 67.500 108.333 L 67.167 108.333 L 67.000 108.167 L 66.667 108.167 L 66.500 108.000 L 66.333 108.000 L 66.167 107.833 L 65.667 107.833 L 65.500 107.667 L 65.333 107.667 L 65.167 107.500 L 64.667 107.500 L 64.500 107.333 L 64.333 107.333 L 64.167 107.167 L 63.833 107.167 L 63.667 107.000 L 63.500 107.000 L 63.333 106.833 L 62.833 106.833 L 62.667 106.667 L 62.167 106.667 L 62.000 106.500 L 61.667 106.500 L 61.500 106.333 L 61.333 106.333 L 61.167 106.167 L 60.833 106.167 L 60.667 106.000 L 60.333 106.000 L 60.167 105.833 L 59.500 105.833 L 59.333 105.667 L 58.833 105.667 L 58.667 105.500 L 58.333 105.500 L 58.167 105.333 L 58.000 105.333 L 57.833 105.167 L 57.500 105.167 L 57.333 105.000 L 57.167 105.000 L 57.000 104.833 L 56.333 104.833 L 56.167 104.667 L 55.500 104.667 L 55.333 104.500 L 55.167 104.500 L 55.000 104.333 L 54.667 104.333 L 54.500 104.167 L 54.333 104.167 L 54.167 104.000 L 53.833 104.000 L 53.667 103.833 L 53.167 103.833 L 53.000 103.667 L 52.500 103.667 L 52.333 103.500 L 51.833 103.500 L 51.667 103.333 L 51.500 103.333 L 51.333 103.167 L 51.167 103.167 L 51.000 103.000 L 50.667 103.000 L 50.500 102.833 L 49.833 102.833 L 49.667 102.667 L 49.167 102.667 L 49.000 102.500 L 48.500 102.500 L 48.167 102.167 L 48.000 102.167 L 47.833 102.000 L 47.667 102.000 L 47.333 101.667 L 47.167 101.667 L 46.500 101.000 L 46.500 100.833 L 46.167 100.500 L 46.167 100.333 L 46.000 100.167 L 46.000 100.000 L 45.833 99.833 L 45.833 99.500 L 45.667 99.333 L 45.667 98.333 L 45.500 98.167 L 45.500 97.833 L 45.667 97.667 L 45.667 96.500 L 45.833 96.333 Z M 42.000 94.333 L 42.000 94.667 L 41.833 94.833 L 41.833 95.500 L 41.667 95.667 L 41.667 100.000 L 41.833 100.167 L 41.833 100.833 L 42.000 101.000 L 42.000 101.333 L 42.167 101.500 L 42.167 101.667 L 42.333 101.833 L 42.333 102.000 L 42.500 102.167 L 42.500 102.333 L 42.667 102.500 L 42.667 102.667 L 43.000 103.000 L 43.000 103.167 L 43.167 103.333 L 43.333 103.333 L 43.500 103.500 L 43.500 103.667 L 43.833 104.000 L 44.000 104.000 L 44.667 104.667 L 44.833 104.667 L 45.167 105.000 L 45.333 105.000 L 45.500 105.167 L 45.833 105.167 L 46.000 105.333 L 46.333 105.333 L 46.667 105.667 L 47.000 105.667 L 47.167 105.833 L 47.333 105.833 L 47.500 106.000 L 47.833 106.000 L 48.000 106.167 L 48.667 106.167 L 48.833 106.333 L 49.333 106.333 L 49.667 106.667 L 49.833 106.667 L 50.000 106.833 L 50.167 106.833 L 50.333 107.000 L 50.667 107.000 L 50.833 107.167 L 51.500 107.167 L 51.667 107.333 L 52.167 107.333 L 52.333 107.500 L 52.667 107.500 L 52.833 107.667 L 53.167 107.667 L 53.333 107.833 L 53.500 107.833 L 53.667 108.000 L 54.000 108.000 L 54.167 108.167 L 54.500 108.167 L 54.667 108.333 L 55.167 108.333 L 55.333 108.500 L 55.667 108.500 L 55.833 108.667 L 56.167 108.667 L 56.333 108.833 L 56.667 108.833 L 56.833 109.000 L 57.167 109.000 L 57.333 109.167 L 57.500 109.167 L 57.667 109.333 L 58.333 109.333 L 58.500 109.500 L 58.833 109.500 L 59.000 109.667 L 59.500 109.667 L 59.667 109.833 L 60.167 109.833 L 60.333 110.000 L 60.667 110.000 L 60.833 110.167 L 61.167 110.167 L 61.333 110.333 L 61.500 110.333 L 61.667 110.500 L 61.667 110.667 L 61.833 110.833 L 61.833 111.167 L 61.333 111.667 L 60.500 111.667 L 60.333 111.833 L 59.833 111.833 L 59.667 112.000 L 59.500 112.000 L 59.333 112.167 L 59.167 112.167 L 59.000 112.333 L 58.833 112.333 L 58.667 112.500 L 58.500 112.500 L 58.333 112.667 L 57.500 112.667 L 57.333 112.833 L 56.667 112.833 L 56.500 113.000 L 56.000 113.000 L 55.833 113.167 L 55.667 113.167 L 55.500 113.333 L 55.333 113.333 L 55.167 113.500 L 54.833 113.500 L 54.667 113.667 L 54.167 113.667 L 54.000 113.833 L 53.167 113.833 L 53.000 114.000 L 52.500 114.000 L 52.333 114.167 L 52.167 114.167 L 52.000 114.333 L 51.667 114.333 L 51.500 114.500 L 51.333 114.500 L 51.167 114.667 L 50.667 114.667 L 50.500 114.833 L 49.667 114.833 L 49.500 115.000 L 49.167 115.000 L 49.000 115.167 L 48.667 115.167 L 48.500 115.333 L 48.333 115.333 L 48.167 115.500 L 47.833 115.500 L 47.667 115.667 L 47.333 115.667 L 47.167 115.833 L 46.667 115.833 L 46.500 116.000 L 46.333 116.000 L 46.167 116.167 L 46.000 116.167 L 45.833 116.333 L 45.667 116.333 L 45.333 116.667 L 45.167 116.667 L 44.833 117.000 L 44.667 117.000 L 44.667 117.167 L 44.333 117.500 L 44.167 117.500 L 43.667 118.000 L 43.667 118.167 L 43.333 118.500 L 43.333 118.667 L 43.000 119.000 L 43.000 119.167 L 42.667 119.500 L 42.667 119.667 L 42.500 119.833 L 42.500 120.167 L 42.333 120.333 L 42.333 120.500 L 42.167 120.667 L 42.167 121.000 L 42.000 121.167 L 42.000 121.500 L 41.833 121.667 L 41.833 122.500 L 41.667 122.667 L 41.667 125.000 L 41.833 125.167 L 41.833 126.333 L 42.000 126.500 L 42.000 127.167 L 42.167 127.333 L 42.167 127.500 L 42.333 127.667 L 42.333 127.833 L 42.500 128.000 L 42.500 128.333 L 42.667 128.500 L 42.667 128.667 L 42.833 128.833 L 42.833 129.000 L 43.000 129.167 L 43.000 129.333 L 43.333 129.667 L 43.333 129.833 L 43.500 130.000 L 43.500 130.167 L 44.500 131.167 L 44.500 131.333 L 44.667 131.333 L 45.333 132.000 L 45.500 132.000 L 45.667 132.167 L 45.833 132.167 L 46.000 132.333 L 46.167 132.333 L 46.667 132.833 L 47.000 132.833 L 47.167 133.000 L 47.500 133.000 L 47.667 133.167 L 48.333 133.167 L 48.500 133.333 L 49.167 133.333 L 49.333 133.500 L 50.333 133.500 L 50.500 133.333 L 51.333 133.333 L 51.500 133.167 L 52.167 133.167 L 52.333 133.000 L 52.667 133.000 L 52.833 132.833 L 53.333 132.833 L 53.500 132.667 L 53.667 132.667 L 53.833 132.500 L 54.167 132.500 L 54.333 132.333 L 54.667 132.333 L 54.833 132.167 L 55.333 132.167 L 55.500 132.000 L 55.833 132.000 L 56.000 131.833 L 56.333 131.833 L 56.500 131.667 L 57.000 131.667 L 57.167 131.500 L 57.333 131.500 L 57.500 131.333 L 57.833 131.333 L 58.000 131.167 L 58.500 131.167 L 58.667 131.000 L 59.000 131.000 L 59.167 130.833 L 59.500 130.833 L 59.667 130.667 L 60.000 130.667 L 60.167 130.500 L 60.333 130.500 L 60.500 130.333 L 61.000 130.333 L 61.167 130.167 L 61.500 130.167 L 61.667 130.000 L 62.167 130.000 L 62.333 129.833 L 62.500 129.833 L 62.667 129.667 L 62.833 129.667 L 63.000 129.500 L 63.333 129.500 L 63.500 129.333 L 63.833 129.333 L 64.000 129.167 L 64.333 129.167 L 64.500 129.000 L 64.833 129.000 L 65.000 128.833 L 65.333 128.833 L 65.500 128.667 L 65.667 128.667 L 65.833 128.500 L 66.167 128.500 L 66.333 128.333 L 66.667 128.333 L 66.833 128.167 L 67.333 128.167 L 67.500 128.000 L 68.000 128.000 L 68.167 127.833 L 68.333 127.833 L 68.500 127.667 L 68.667 127.667 L 68.833 127.500 L 69.167 127.500 L 69.333 127.333 L 69.667 127.333 L 69.833 127.167 L 70.500 127.167 L 70.667 127.000 L 71.167 127.000 L 71.333 126.833 L 71.500 126.833 L 71.667 126.667 L 72.000 126.667 L 72.167 126.500 L 72.333 126.500 L 72.500 126.333 L 73.000 126.333 L 73.167 126.167 L 73.667 126.167 L 73.833 126.000 L 74.333 126.000 L 74.500 125.833 L 74.833 125.833 L 75.000 125.667 L 75.167 125.667 L 75.333 125.500 L 75.500 125.500 L 75.667 125.333 L 76.000 125.333 L 76.167 125.167 L 76.500 125.167 L 76.667 125.000 L 77.333 125.000 L 77.500 124.833 L 77.667 124.833 L 77.833 124.667 L 78.000 124.667 L 78.167 124.500 L 78.333 124.500 L 78.500 124.333 L 78.667 124.333 L 78.833 124.167 L 79.333 124.167 L 79.500 124.000 L 80.000 124.000 L 80.167 123.833 L 80.500 123.833 L 80.667 123.667 L 81.000 123.667 L 81.167 123.500 L 81.333 123.500 L 81.500 123.333 L 81.667 123.333 L 81.833 123.167 L 82.167 123.167 L 82.333 123.000 L 82.833 123.000 L 83.000 122.833 L 83.500 122.833 L 83.667 122.667 L 84.000 122.667 L 84.167 122.500 L 84.500 122.500 L 84.667 122.333 L 85.167 122.333 L 85.333 122.167 L 85.667 122.167 L 85.833 122.000 L 86.333 122.000 L 86.500 121.833 L 86.833 121.833 L 87.000 121.667 L 87.333 121.667 L 87.500 121.500 L 88.000 121.500 L 88.167 121.333 L 88.500 121.333 L 88.667 121.167 L 89.000 121.167 L 89.167 121.000 L 89.333 121.000 L 89.500 120.833 L 89.833 120.833 L 90.000 120.667 L 90.333 120.667 L 90.500 120.500 L 90.833 120.500 L 91.000 120.333 L 91.667 120.333 L 91.833 120.167 L 92.167 120.167 L 92.333 120.333 L 93.500 120.333 L 93.667 120.500 L 93.833 120.500 L 94.000 120.667 L 94.167 120.667 L 94.333 120.833 L 94.500 120.833 L 94.667 121.000 L 95.000 121.000 L 95.167 121.167 L 95.333 121.167 L 95.500 121.333 L 96.000 121.333 L 96.167 121.500 L 96.500 121.500 L 96.667 121.667 L 97.167 121.667 L 97.333 121.833 L 97.667 121.833 L 97.833 122.000 L 98.167 122.000 L 98.333 122.167 L 98.667 122.167 L 98.833 122.333 L 99.000 122.333 L 99.167 122.500 L 99.333 122.500 L 99.500 122.667 L 100.000 122.667 L 100.167 122.833 L 100.667 122.833 L 100.833 123.000 L 101.167 123.000 L 101.333 123.167 L 101.667 123.167 L 101.833 123.333 L 102.167 123.333 L 102.333 123.500 L 102.500 123.500 L 102.667 123.667 L 103.000 123.667 L 103.167 123.833 L 103.500 123.833 L 103.667 124.000 L 104.500 124.000 L 104.667 124.167 L 105.167 124.167 L 105.333 124.333 L 105.500 124.333 L 105.667 124.500 L 105.833 124.500 L 106.000 124.667 L 106.333 124.667 L 106.500 124.833 L 106.833 124.833 L 107.000 125.000 L 107.833 125.000 L 108.000 125.167 L 108.500 125.167 L 108.667 125.333 L 109.167 125.333 L 109.500 125.667 L 109.667 125.667 L 109.833 125.833 L 110.000 125.833 L 110.167 126.000 L 110.833 126.000 L 111.000 126.167 L 111.667 126.167 L 111.833 126.333 L 112.000 126.333 L 112.167 126.500 L 112.333 126.500 L 112.500 126.667 L 112.667 126.667 L 112.833 126.833 L 113.167 126.833 L 113.333 127.000 L 113.667 127.000 L 113.833 127.167 L 114.333 127.167 L 114.500 127.333 L 115.000 127.333 L 115.167 127.500 L 115.333 127.500 L 115.500 127.667 L 115.667 127.667 L 115.833 127.833 L 116.000 127.833 L 116.167 128.000 L 116.500 128.000 L 116.667 128.167 L 117.167 128.167 L 117.333 128.333 L 117.667 128.333 L 117.833 128.500 L 118.167 128.500 L 118.333 128.667 L 118.500 128.667 L 118.667 128.833 L 119.000 128.833 L 119.167 129.000 L 119.333 129.000 L 119.500 129.167 L 120.000 129.167 L 120.167 129.333 L 120.500 129.333 L 120.667 129.500 L 121.000 129.500 L 121.167 129.667 L 121.500 129.667 L 121.667 129.833 L 122.167 129.833 L 122.333 130.000 L 122.667 130.000 L 122.833 130.167 L 123.167 130.167 L 123.333 130.333 L 123.833 130.333 L 124.000 130.500 L 124.333 130.500 L 124.500 130.667 L 125.000 130.667 L 125.167 130.833 L 125.333 130.833 L 125.500 131.000 L 125.833 131.000 L 126.000 131.167 L 126.333 131.167 L 126.500 131.333 L 127.000 131.333 L 127.167 131.500 L 127.333 131.500 L 127.500 131.667 L 127.833 131.667 L 128.000 131.833 L 128.333 131.833 L 128.500 132.000 L 129.000 132.000 L 129.167 132.167 L 129.333 132.167 L 129.500 132.333 L 129.667 132.333 L 129.833 132.500 L 130.000 132.500 L 130.167 132.667 L 130.333 132.667 L 130.500 132.833 L 131.000 132.833 L 131.167 133.000 L 132.000 133.000 L 132.167 133.167 L 132.667 133.167 L 132.833 133.333 L 133.333 133.333 L 133.500 133.500 L 134.333 133.500 L 134.500 133.333 L 135.333 133.333 L 135.500 133.167 L 136.167 133.167 L 136.333 133.000 L 136.833 133.000 L 137.000 132.833 L 137.167 132.833 L 137.333 132.667 L 137.500 132.667 L 137.667 132.500 L 137.833 132.500 L 138.000 132.333 L 138.167 132.333 L 138.333 132.167 L 138.500 132.167 L 138.833 131.833 L 139.000 131.833 L 140.167 130.667 L 140.167 130.500 L 140.833 129.833 L 140.833 129.667 L 141.000 129.500 L 141.000 129.333 L 141.167 129.167 L 141.167 129.000 L 141.333 128.833 L 141.333 128.667 L 141.667 128.333 L 141.667 128.167 L 141.833 128.000 L 141.833 127.667 L 142.000 127.500 L 142.000 127.167 L 142.167 127.000 L 142.167 126.500 L 142.333 126.333 L 142.333 126.000 L 142.500 125.833 L 142.500 125.500 L 142.667 125.333 L 142.667 124.500 L 142.833 124.333 L 142.833 123.833 L 142.667 123.667 L 142.667 122.667 L 142.500 122.500 L 142.500 122.000 L 142.333 121.833 L 142.333 121.333 L 142.167 121.167 L 142.167 120.667 L 142.000 120.500 L 142.000 120.167 L 141.833 120.000 L 141.833 119.667 L 141.333 119.167 L 141.333 119.000 L 141.167 118.833 L 141.167 118.667 L 140.500 118.000 L 140.500 117.833 L 140.167 117.500 L 140.000 117.500 L 139.667 117.167 L 139.500 117.167 L 139.167 116.833 L 139.000 116.833 L 138.833 116.667 L 138.667 116.667 L 138.500 116.500 L 138.333 116.500 L 138.167 116.333 L 138.000 116.333 L 137.833 116.167 L 137.667 116.167 L 137.500 116.000 L 137.000 116.000 L 136.833 115.833 L 136.167 115.833 L 136.000 115.667 L 135.500 115.667 L 135.333 115.500 L 135.167 115.500 L 135.000 115.333 L 134.667 115.333 L 134.500 115.167 L 134.333 115.167 L 134.167 115.000 L 133.833 115.000 L 133.667 114.833 L 133.167 114.833 L 133.000 114.667 L 132.500 114.667 L 132.333 114.500 L 132.167 114.500 L 132.000 114.333 L 131.833 114.333 L 131.667 114.167 L 131.500 114.167 L 131.333 114.000 L 131.167 114.000 L 131.000 113.833 L 130.333 113.833 L 130.167 113.667 L 129.500 113.667 L 129.333 113.500 L 129.000 113.500 L 128.833 113.333 L 128.667 113.333 L 128.500 113.167 L 128.333 113.167 L 128.167 113.000 L 128.000 113.000 L 127.833 112.833 L 127.333 112.833 L 127.167 112.667 L 126.667 112.667 L 126.500 112.500 L 126.167 112.500 L 126.000 112.333 L 125.833 112.333 L 125.667 112.167 L 125.500 112.167 L 125.333 112.000 L 125.167 112.000 L 125.000 111.833 L 123.667 111.833 L 123.500 111.667 L 122.500 111.667 L 122.167 111.333 L 122.167 111.000 L 122.333 110.833 L 122.333 110.667 L 122.500 110.500 L 122.667 110.500 L 122.833 110.333 L 123.000 110.333 L 123.167 110.167 L 123.500 110.167 L 123.667 110.000 L 124.000 110.000 L 124.167 109.833 L 124.500 109.833 L 124.667 109.667 L 125.167 109.667 L 125.333 109.500 L 125.667 109.500 L 125.833 109.333 L 126.333 109.333 L 126.500 109.167 L 127.000 109.167 L 127.167 109.000 L 127.333 109.000 L 127.500 108.833 L 127.833 108.833 L 128.000 108.667 L 128.333 108.667 L 128.500 108.500 L 128.833 108.500 L 129.000 108.333 L 129.500 108.333 L 129.667 108.167 L 130.167 108.167 L 130.333 108.000 L 130.667 108.000 L 130.833 107.833 L 131.000 107.833 L 131.167 107.667 L 131.333 107.667 L 131.500 107.500 L 132.000 107.500 L 132.167 107.333 L 132.667 107.333 L 132.833 107.167 L 133.333 107.167 L 133.500 107.000 L 133.833 107.000 L 134.000 106.833 L 134.167 106.833 L 134.333 106.667 L 134.500 106.667 L 134.667 106.500 L 134.833 106.500 L 135.000 106.333 L 135.500 106.333 L 135.667 106.167 L 136.333 106.167 L 136.500 106.000 L 136.833 106.000 L 137.000 105.833 L 137.333 105.833 L 137.667 105.500 L 138.000 105.500 L 138.167 105.333 L 138.333 105.333 L 138.500 105.167 L 138.833 105.167 L 139.000 105.000 L 139.167 105.000 L 139.667 104.500 L 139.833 104.500 L 141.000 103.333 L 141.000 103.167 L 141.167 103.000 L 141.167 102.833 L 141.667 102.333 L 141.667 102.167 L 141.833 102.000 L 141.833 101.833 L 142.000 101.667 L 142.000 101.333 L 142.167 101.167 L 142.167 100.667 L 142.333 100.500 L 142.333 100.167 L 142.500 100.000 L 142.500 99.500 L 142.667 99.333 L 142.667 98.500 L 142.833 98.333 L 142.833 97.000 L 142.667 96.833 L 142.667 96.167 L 142.500 96.000 L 142.500 95.500 L 142.333 95.333 L 142.333 95.000 L 142.167 94.833 L 142.167 94.333 L 142.000 94.167 L 142.000 93.667 L 141.833 93.500 L 141.833 93.333 L 141.500 93.000 L 141.500 92.833 L 141.333 92.667 L 141.333 92.500 L 141.000 92.167 L 141.000 92.000 L 140.333 91.333 L 140.333 91.167 L 139.000 89.833 L 138.833 89.833 L 138.667 89.667 L 138.500 89.667 L 138.167 89.333 L 138.000 89.333 L 137.833 89.167 L 137.667 89.167 L 137.333 88.833 L 137.000 88.833 L 136.833 88.667 L 136.500 88.667 L 136.333 88.500 L 135.833 88.500 L 135.667 88.333 L 135.500 88.333 L 135.333 88.167 L 133.333 88.167 L 133.167 88.333 L 132.833 88.333 L 132.667 88.500 L 132.333 88.500 L 132.167 88.667 L 131.500 88.667 L 131.333 88.833 L 130.833 88.833 L 130.667 89.000 L 130.333 89.000 L 130.167 89.167 L 129.833 89.167 L 129.667 89.333 L 129.500 89.333 L 129.333 89.500 L 129.000 89.500 L 128.833 89.667 L 128.333 89.667 L 128.167 89.833 L 127.833 89.833 L 127.667 90.000 L 127.333 90.000 L 127.167 90.167 L 127.000 90.167 L 126.833 90.333 L 126.500 90.333 L 126.333 90.500 L 126.000 90.500 L 125.833 90.667 L 125.333 90.667 L 125.167 90.833 L 124.833 90.833 L 124.667 91.000 L 124.500 91.000 L 124.333 91.167 L 124.000 91.167 L 123.833 91.333 L 123.500 91.333 L 123.333 91.500 L 122.833 91.500 L 122.667 91.667 L 122.333 91.667 L 122.167 91.833 L 121.667 91.833 L 121.500 92.000 L 121.333 92.000 L 121.167 92.167 L 120.833 92.167 L 120.667 92.333 L 120.500 92.333 L 120.333 92.500 L 120.000 92.500 L 119.833 92.667 L 119.333 92.667 L 119.167 92.833 L 118.500 92.833 L 118.333 93.000 L 118.000 93.000 L 117.833 93.167 L 117.500 93.167 L 117.333 93.333 L 117.000 93.333 L 116.833 93.500 L 116.500 93.500 L 116.333 93.667 L 115.500 93.667 L 115.333 93.833 L 115.000 93.833 L 114.833 94.000 L 114.500 94.000 L 114.167 94.333 L 113.833 94.333 L 113.667 94.500 L 113.333 94.500 L 113.167 94.667 L 112.500 94.667 L 112.333 94.833 L 111.833 94.833 L 111.667 95.000 L 111.500 95.000 L 111.333 95.167 L 111.167 95.167 L 111.000 95.333 L 110.667 95.333 L 110.500 95.500 L 110.167 95.500 L 110.000 95.667 L 109.500 95.667 L 109.333 95.833 L 108.833 95.833 L 108.667 96.000 L 108.333 96.000 L 108.167 96.167 L 108.000 96.167 L 107.833 96.333 L 107.500 96.333 L 107.333 96.500 L 107.167 96.500 L 107.000 96.667 L 106.500 96.667 L 106.333 96.833 L 105.833 96.833 L 105.667 97.000 L 105.500 97.000 L 105.333 97.167 L 105.000 97.167 L 104.833 97.333 L 104.500 97.333 L 104.333 97.500 L 104.000 97.500 L 103.833 97.667 L 103.333 97.667 L 103.167 97.833 L 102.833 97.833 L 102.667 98.000 L 102.500 98.000 L 102.333 98.167 L 101.833 98.167 L 101.667 98.333 L 101.500 98.333 L 101.333 98.500 L 100.833 98.500 L 100.667 98.667 L 100.333 98.667 L 100.167 98.833 L 99.667 98.833 L 99.500 99.000 L 99.167 99.000 L 99.000 99.167 L 98.667 99.167 L 98.500 99.333 L 98.167 99.333 L 98.000 99.500 L 97.500 99.500 L 97.333 99.667 L 96.833 99.667 L 96.667 99.833 L 96.500 99.833 L 96.333 100.000 L 96.000 100.000 L 95.833 100.167 L 95.500 100.167 L 95.333 100.333 L 95.000 100.333 L 94.833 100.500 L 94.500 100.500 L 94.333 100.667 L 93.833 100.667 L 93.667 100.833 L 93.333 100.833 L 93.167 101.000 L 91.667 101.000 L 91.500 100.833 L 91.000 100.833 L 90.833 100.667 L 90.500 100.667 L 90.333 100.500 L 89.833 100.500 L 89.667 100.333 L 89.500 100.333 L 89.333 100.167 L 89.000 100.167 L 88.833 100.000 L 88.667 100.000 L 88.500 99.833 L 88.167 99.833 L 88.000 99.667 L 87.333 99.667 L 87.167 99.500 L 86.667 99.500 L 86.500 99.333 L 86.167 99.333 L 86.000 99.167 L 85.500 99.167 L 85.333 99.000 L 85.000 99.000 L 84.833 98.833 L 84.500 98.833 L 84.333 98.667 L 83.667 98.667 L 83.500 98.500 L 83.000 98.500 L 82.833 98.333 L 82.500 98.333 L 82.333 98.167 L 82.000 98.167 L 81.833 98.000 L 81.500 98.000 L 81.333 97.833 L 80.833 97.833 L 80.667 97.667 L 80.333 97.667 L 80.167 97.500 L 79.833 97.500 L 79.667 97.333 L 79.500 97.333 L 79.333 97.167 L 79.000 97.167 L 78.833 97.000 L 78.500 97.000 L 78.333 96.833 L 77.833 96.833 L 77.667 96.667 L 77.333 96.667 L 77.167 96.500 L 76.833 96.500 L 76.667 96.333 L 76.500 96.333 L 76.333 96.167 L 76.000 96.167 L 75.833 96.000 L 75.667 96.000 L 75.500 95.833 L 75.167 95.833 L 75.000 95.667 L 74.500 95.667 L 74.333 95.500 L 74.000 95.500 L 73.833 95.333 L 73.500 95.333 L 73.167 95.000 L 72.833 95.000 L 72.667 94.833 L 72.333 94.833 L 72.167 94.667 L 71.333 94.667 L 71.167 94.500 L 70.667 94.500 L 70.500 94.333 L 70.167 94.333 L 70.000 94.167 L 69.500 94.167 L 69.333 94.000 L 69.167 94.000 L 69.000 93.833 L 68.500 93.833 L 68.333 93.667 L 67.667 93.667 L 67.500 93.500 L 67.167 93.500 L 67.000 93.333 L 66.667 93.333 L 66.500 93.167 L 66.333 93.167 L 66.167 93.000 L 65.833 93.000 L 65.667 92.833 L 65.167 92.833 L 65.000 92.667 L 64.500 92.667 L 64.333 92.500 L 64.167 92.500 L 64.000 92.333 L 63.667 92.333 L 63.500 92.167 L 63.333 92.167 L 63.167 92.000 L 62.667 92.000 L 62.500 91.833 L 62.167 91.833 L 62.000 91.667 L 61.667 91.667 L 61.500 91.500 L 61.167 91.500 L 61.000 91.333 L 60.667 91.333 L 60.500 91.167 L 60.333 91.167 L 60.167 91.000 L 59.833 91.000 L 59.667 90.833 L 59.333 90.833 L 59.167 90.667 L 58.667 90.667 L 58.500 90.500 L 58.333 90.500 L 58.167 90.333 L 57.833 90.333 L 57.667 90.167 L 57.333 90.167 L 57.167 90.000 L 56.833 90.000 L 56.667 89.833 L 56.333 89.833 L 56.167 89.667 L 55.667 89.667 L 55.500 89.500 L 55.000 89.500 L 54.833 89.333 L 54.500 89.333 L 54.333 89.167 L 54.167 89.167 L 54.000 89.000 L 53.500 89.000 L 53.333 88.833 L 52.833 88.833 L 52.667 88.667 L 52.167 88.667 L 52.000 88.500 L 51.333 88.500 L 51.167 88.333 L 50.500 88.333 L 50.333 88.167 L 50.000 88.167 L 49.833 88.333 L 49.167 88.333 L 49.000 88.500 L 48.333 88.500 L 48.167 88.667 L 47.833 88.667 L 47.667 88.833 L 47.333 88.833 L 47.167 89.000 L 47.000 89.000 L 46.833 89.167 L 46.667 89.167 L 46.500 89.333 L 46.333 89.333 L 46.167 89.500 L 46.000 89.500 L 45.833 89.667 L 45.667 89.667 L 45.333 90.000 L 45.167 90.000 L 43.667 91.500 L 43.667 91.667 L 43.333 92.000 L 43.333 92.167 L 42.833 92.667 L 42.833 92.833 L 42.667 93.000 L 42.667 93.167 L 42.500 93.333 L 42.500 93.500 L 42.333 93.667 L 42.333 93.833 L 42.167 94.000 L 42.167 94.167 Z M 92.167 72.333 L 92.667 72.333 L 92.833 72.500 L 92.833 72.667 L 93.000 72.833 L 93.000 73.000 L 93.667 73.667 L 93.667 73.833 L 93.833 74.000 L 93.833 74.167 L 94.000 74.333 L 94.000 74.500 L 94.167 74.667 L 94.167 74.833 L 94.333 75.000 L 94.333 75.167 L 94.667 75.500 L 94.667 75.667 L 94.833 75.833 L 94.833 76.000 L 95.500 76.667 L 95.500 76.833 L 96.500 77.833 L 96.500 78.000 L 96.833 78.333 L 97.000 78.333 L 97.500 78.833 L 97.500 79.000 L 98.667 80.167 L 98.667 80.333 L 98.833 80.500 L 98.833 80.667 L 99.000 80.833 L 99.000 81.000 L 99.500 81.500 L 99.500 81.667 L 99.667 81.833 L 99.667 82.500 L 99.833 82.667 L 99.833 85.333 L 99.667 85.500 L 99.667 86.333 L 99.500 86.500 L 99.500 86.833 L 99.333 87.000 L 99.333 87.167 L 99.000 87.500 L 99.000 87.667 L 98.833 87.833 L 98.833 88.000 L 98.667 88.167 L 98.667 88.333 L 98.333 88.667 L 98.333 88.833 L 96.333 90.833 L 96.167 90.833 L 96.000 91.000 L 95.833 91.000 L 95.333 91.500 L 95.167 91.500 L 95.000 91.667 L 94.667 91.667 L 94.500 91.833 L 94.167 91.833 L 94.000 92.000 L 93.667 92.000 L 93.500 92.167 L 91.167 92.167 L 91.000 92.000 L 90.667 92.000 L 90.500 91.833 L 90.000 91.833 L 89.833 91.667 L 89.500 91.667 L 88.833 91.000 L 88.667 91.000 L 86.833 89.167 L 86.833 89.000 L 86.333 88.500 L 86.333 88.333 L 86.000 88.000 L 86.000 87.833 L 85.500 87.333 L 85.500 87.167 L 85.333 87.000 L 85.333 86.667 L 85.167 86.500 L 85.167 86.333 L 85.000 86.167 L 85.000 86.000 L 84.833 85.833 L 84.833 85.667 L 84.667 85.500 L 84.667 85.333 L 84.500 85.167 L 84.500 84.333 L 84.333 84.167 L 84.333 83.167 L 84.500 83.000 L 84.500 82.500 L 84.667 82.333 L 84.667 82.000 L 84.833 81.833 L 84.833 81.667 L 85.000 81.500 L 85.000 81.333 L 85.167 81.167 L 85.167 81.000 L 85.333 80.833 L 85.333 80.667 L 85.833 80.167 L 85.833 80.000 L 86.333 79.500 L 86.333 79.333 L 86.667 79.000 L 86.833 79.000 L 86.833 78.833 L 88.500 77.167 L 88.500 77.000 L 89.667 75.833 L 89.667 75.667 L 90.167 75.167 L 90.167 75.000 L 90.500 74.667 L 90.500 74.500 L 90.833 74.167 L 90.833 74.000 L 91.000 73.833 L 91.000 73.667 L 91.333 73.333 L 91.333 73.167 Z M 89.167 25.333 L 89.667 25.333 L 91.000 26.667 L 91.167 26.667 L 94.833 30.333 L 95.000 30.333 L 95.333 30.667 L 95.333 30.833 L 96.500 32.000 L 96.500 32.167 L 97.333 33.000 L 97.333 33.167 L 97.667 33.500 L 97.667 33.667 L 98.000 34.000 L 98.000 34.167 L 98.167 34.167 L 98.500 34.500 L 98.500 34.667 L 98.667 34.833 L 98.667 35.000 L 98.833 35.167 L 98.833 35.333 L 99.167 35.667 L 99.167 35.833 L 99.500 36.167 L 99.500 36.333 L 99.667 36.500 L 99.667 36.667 L 99.833 36.833 L 99.833 37.167 L 100.000 37.333 L 100.000 37.500 L 100.500 38.000 L 100.500 38.167 L 100.667 38.333 L 100.667 38.500 L 100.833 38.667 L 100.833 39.167 L 101.000 39.333 L 101.000 39.500 L 101.167 39.667 L 101.167 39.833 L 101.333 40.000 L 101.333 40.167 L 101.667 40.500 L 101.667 40.833 L 101.833 41.000 L 101.833 41.667 L 102.000 41.833 L 102.000 42.333 L 102.167 42.500 L 102.167 43.000 L 102.333 43.167 L 102.333 43.500 L 102.500 43.667 L 102.500 44.167 L 102.667 44.333 L 102.667 44.833 L 102.833 45.000 L 102.833 46.167 L 103.000 46.333 L 103.000 47.500 L 103.167 47.667 L 103.167 53.000 L 103.000 53.167 L 103.000 53.667 L 102.833 53.833 L 102.833 54.167 L 102.667 54.333 L 102.667 54.500 L 102.500 54.667 L 102.500 54.833 L 102.333 55.000 L 102.333 55.167 L 102.167 55.333 L 102.167 55.667 L 102.000 55.833 L 102.000 56.833 L 102.167 57.000 L 102.167 57.333 L 102.500 57.667 L 102.500 57.833 L 102.667 57.833 L 102.833 58.000 L 103.000 58.000 L 103.167 58.167 L 104.167 58.167 L 104.333 58.000 L 105.000 58.000 L 105.167 57.833 L 105.333 57.833 L 105.667 57.500 L 105.833 57.500 L 106.000 57.333 L 106.167 57.333 L 106.333 57.167 L 106.500 57.167 L 106.833 56.833 L 107.000 56.833 L 107.500 56.333 L 107.667 56.333 L 108.000 56.000 L 108.167 56.000 L 108.333 55.833 L 108.333 55.667 L 108.667 55.333 L 108.833 55.333 L 109.333 54.833 L 109.333 54.667 L 110.000 54.000 L 110.000 53.833 L 110.833 53.000 L 110.833 52.833 L 111.000 52.667 L 111.000 52.500 L 111.167 52.333 L 111.167 52.167 L 111.500 51.833 L 111.500 51.667 L 111.833 51.333 L 111.833 51.000 L 112.000 50.833 L 112.000 50.500 L 112.333 50.167 L 112.833 50.167 L 113.667 51.000 L 113.667 51.167 L 113.833 51.333 L 113.833 51.500 L 114.167 51.833 L 114.167 52.000 L 114.667 52.500 L 114.667 52.667 L 114.833 52.833 L 114.833 53.167 L 115.000 53.333 L 115.000 53.500 L 115.167 53.667 L 115.167 53.833 L 115.333 54.000 L 115.333 54.167 L 115.667 54.500 L 115.667 54.667 L 115.833 54.833 L 115.833 55.167 L 116.167 55.500 L 116.167 55.667 L 116.333 55.833 L 116.333 56.000 L 116.500 56.167 L 116.500 56.500 L 116.667 56.667 L 116.667 56.833 L 116.833 57.000 L 116.833 57.167 L 117.167 57.500 L 117.167 57.667 L 117.333 57.833 L 117.333 58.167 L 117.500 58.333 L 117.500 58.500 L 117.667 58.667 L 117.667 59.167 L 117.833 59.333 L 117.833 59.500 L 118.000 59.667 L 118.000 59.833 L 118.167 60.000 L 118.167 60.167 L 118.333 60.333 L 118.333 60.500 L 118.500 60.667 L 118.500 61.167 L 118.667 61.333 L 118.667 61.833 L 118.833 62.000 L 118.833 62.333 L 119.000 62.500 L 119.000 63.000 L 119.167 63.167 L 119.167 63.500 L 119.333 63.667 L 119.333 64.167 L 119.500 64.333 L 119.500 65.167 L 119.667 65.333 L 119.667 71.000 L 119.500 71.167 L 119.500 72.000 L 119.333 72.167 L 119.333 72.500 L 119.167 72.667 L 119.167 73.000 L 119.000 73.167 L 119.000 73.500 L 118.833 73.667 L 118.833 74.167 L 118.667 74.333 L 118.667 74.833 L 118.500 75.000 L 118.500 75.333 L 118.333 75.500 L 118.333 75.833 L 118.167 76.000 L 118.167 76.167 L 118.000 76.333 L 118.000 76.500 L 117.833 76.667 L 117.833 76.833 L 117.667 77.000 L 117.667 77.333 L 117.500 77.500 L 117.500 77.833 L 117.333 78.000 L 117.333 78.333 L 117.000 78.667 L 117.000 78.833 L 116.833 79.000 L 116.833 79.167 L 116.500 79.500 L 116.500 79.667 L 116.333 79.833 L 116.333 80.167 L 116.000 80.500 L 116.000 80.667 L 115.833 80.833 L 115.833 81.000 L 115.500 81.333 L 115.500 81.500 L 115.167 81.833 L 115.167 82.000 L 114.667 82.500 L 114.667 82.667 L 113.833 83.500 L 113.833 83.667 L 112.167 85.333 L 112.000 85.333 L 111.500 85.833 L 111.333 85.833 L 110.833 86.333 L 110.667 86.333 L 110.333 86.667 L 110.167 86.667 L 110.000 86.833 L 109.833 86.833 L 109.333 87.333 L 109.167 87.333 L 109.000 87.500 L 108.833 87.500 L 108.667 87.667 L 108.500 87.667 L 108.167 88.000 L 108.000 88.000 L 107.667 88.333 L 107.500 88.333 L 107.167 88.667 L 106.833 88.667 L 106.667 88.833 L 106.500 88.833 L 106.333 89.000 L 106.167 89.000 L 106.000 89.167 L 105.833 89.167 L 105.500 89.500 L 105.333 89.500 L 105.167 89.667 L 104.833 89.667 L 104.667 89.833 L 104.500 89.833 L 104.333 90.000 L 104.167 90.000 L 104.000 90.167 L 103.833 90.167 L 103.667 90.333 L 103.333 90.333 L 103.167 90.500 L 102.667 90.500 L 102.500 90.333 L 102.500 90.000 L 102.667 89.833 L 102.667 89.667 L 102.833 89.500 L 102.833 89.333 L 103.000 89.167 L 103.000 88.833 L 103.167 88.667 L 103.167 88.500 L 103.333 88.333 L 103.333 88.167 L 103.500 88.000 L 103.500 87.833 L 103.667 87.667 L 103.667 87.500 L 103.833 87.333 L 103.833 87.000 L 104.000 86.833 L 104.000 85.500 L 104.167 85.333 L 104.167 83.667 L 104.000 83.500 L 104.000 82.500 L 103.833 82.333 L 103.833 82.000 L 103.667 81.833 L 103.667 81.500 L 103.500 81.333 L 103.500 81.167 L 103.333 81.000 L 103.333 80.667 L 103.167 80.500 L 103.167 80.167 L 103.000 80.000 L 103.000 79.667 L 102.500 79.167 L 102.500 79.000 L 102.333 78.833 L 102.333 78.667 L 102.000 78.333 L 102.000 78.000 L 101.333 77.333 L 101.333 77.167 L 101.000 76.833 L 101.000 76.667 L 100.667 76.333 L 100.667 76.167 L 98.833 74.333 L 98.667 74.333 L 97.833 73.500 L 97.667 73.500 L 97.500 73.333 L 97.500 73.167 L 97.000 72.667 L 97.000 72.500 L 96.333 71.833 L 96.333 71.667 L 96.167 71.500 L 96.167 71.333 L 95.833 71.000 L 95.833 70.833 L 95.333 70.333 L 95.333 70.167 L 95.167 70.000 L 95.167 69.833 L 95.000 69.667 L 95.000 69.500 L 94.333 68.833 L 94.333 68.667 L 94.000 68.333 L 94.000 68.167 L 92.833 67.000 L 92.667 67.000 L 92.500 66.833 L 91.500 66.833 L 90.833 67.500 L 90.833 67.667 L 90.667 67.833 L 90.667 68.000 L 90.000 68.667 L 90.000 68.833 L 89.833 69.000 L 89.833 69.167 L 89.667 69.333 L 89.667 69.500 L 89.333 69.833 L 89.333 70.000 L 88.833 70.500 L 88.833 70.833 L 88.667 71.000 L 88.667 71.167 L 88.500 71.333 L 88.500 71.500 L 87.833 72.167 L 87.833 72.333 L 87.333 72.833 L 87.333 73.000 L 84.500 75.833 L 84.500 76.000 L 83.500 77.000 L 83.500 77.167 L 83.000 77.667 L 83.000 77.833 L 82.667 78.167 L 82.667 78.333 L 82.333 78.667 L 82.333 78.833 L 82.167 79.000 L 82.167 79.167 L 82.000 79.333 L 82.000 79.500 L 81.833 79.667 L 81.833 79.833 L 81.667 80.000 L 81.667 80.333 L 81.500 80.500 L 81.500 80.667 L 81.333 80.833 L 81.333 81.167 L 81.167 81.333 L 81.167 81.500 L 81.000 81.667 L 81.000 82.833 L 80.833 83.000 L 80.833 85.333 L 81.000 85.500 L 81.000 86.667 L 81.167 86.833 L 81.167 87.167 L 81.333 87.333 L 81.333 87.500 L 81.500 87.667 L 81.500 88.000 L 81.667 88.167 L 81.667 88.333 L 81.833 88.500 L 81.833 88.667 L 82.000 88.833 L 82.000 89.167 L 82.167 89.333 L 82.167 89.500 L 82.333 89.667 L 82.333 90.000 L 82.500 90.167 L 82.500 90.333 L 82.333 90.500 L 82.167 90.500 L 82.000 90.667 L 81.833 90.667 L 81.667 90.500 L 81.000 90.500 L 80.833 90.333 L 80.667 90.333 L 80.500 90.167 L 80.333 90.167 L 80.167 90.000 L 80.000 90.000 L 79.833 89.833 L 79.500 89.833 L 79.333 89.667 L 79.000 89.667 L 78.833 89.500 L 78.667 89.500 L 78.333 89.167 L 78.167 89.167 L 78.000 89.000 L 77.833 89.000 L 77.667 88.833 L 77.500 88.833 L 77.333 88.667 L 77.167 88.667 L 77.000 88.500 L 76.667 88.500 L 76.000 87.833 L 75.833 87.833 L 75.667 87.667 L 75.500 87.667 L 75.333 87.500 L 75.167 87.500 L 75.000 87.333 L 74.833 87.333 L 74.500 87.000 L 74.333 87.000 L 74.000 86.667 L 73.833 86.667 L 73.000 85.833 L 72.833 85.833 L 71.667 84.667 L 71.500 84.667 L 71.167 84.333 L 71.167 84.167 L 69.333 82.333 L 69.333 82.167 L 69.000 81.833 L 69.000 81.667 L 68.833 81.500 L 68.833 81.333 L 68.667 81.167 L 68.667 81.000 L 68.167 80.500 L 68.167 80.333 L 68.000 80.167 L 68.000 80.000 L 67.833 79.833 L 67.833 79.667 L 67.500 79.333 L 67.500 79.167 L 67.333 79.000 L 67.333 78.833 L 67.167 78.667 L 67.167 78.500 L 67.000 78.333 L 67.000 78.167 L 66.833 78.000 L 66.833 77.833 L 66.667 77.667 L 66.667 77.500 L 66.500 77.333 L 66.500 77.167 L 66.333 77.000 L 66.333 76.667 L 66.167 76.500 L 66.167 76.333 L 66.000 76.167 L 66.000 75.833 L 65.833 75.667 L 65.833 75.333 L 65.667 75.167 L 65.667 74.667 L 65.500 74.500 L 65.500 73.833 L 65.333 73.667 L 65.333 73.333 L 65.167 73.167 L 65.167 72.667 L 65.000 72.500 L 65.000 72.000 L 64.833 71.833 L 64.833 71.333 L 64.667 71.167 L 64.667 65.500 L 64.833 65.333 L 64.833 63.667 L 65.000 63.500 L 65.000 62.667 L 65.167 62.500 L 65.167 62.000 L 65.333 61.833 L 65.333 61.333 L 65.500 61.167 L 65.500 60.667 L 65.667 60.500 L 65.667 60.167 L 65.833 60.000 L 65.833 59.500 L 66.000 59.333 L 66.000 59.000 L 66.167 58.833 L 66.167 58.500 L 66.333 58.333 L 66.333 57.833 L 66.500 57.667 L 66.500 57.333 L 66.667 57.167 L 66.667 56.833 L 66.833 56.667 L 66.833 56.500 L 67.000 56.333 L 67.000 56.167 L 67.167 56.000 L 67.167 55.833 L 67.333 55.667 L 67.333 55.500 L 67.500 55.333 L 67.500 55.167 L 67.667 55.000 L 67.667 54.833 L 67.833 54.667 L 67.833 54.500 L 68.000 54.333 L 68.000 54.167 L 68.167 54.000 L 68.167 53.833 L 68.333 53.667 L 68.333 53.500 L 68.667 53.167 L 68.667 53.000 L 68.833 52.833 L 68.833 52.667 L 69.000 52.500 L 69.000 52.333 L 69.167 52.167 L 69.167 52.000 L 69.667 51.500 L 69.667 51.333 L 69.833 51.167 L 69.833 51.000 L 70.000 50.833 L 70.000 50.667 L 70.167 50.500 L 70.167 50.333 L 70.333 50.167 L 70.500 50.167 L 70.833 49.833 L 70.833 49.667 L 71.167 49.333 L 71.167 49.167 L 72.167 48.167 L 72.167 48.000 L 73.167 47.000 L 73.167 46.833 L 74.167 45.833 L 74.167 45.667 L 74.667 45.167 L 74.833 45.167 L 75.000 45.000 L 75.000 44.833 L 76.167 43.667 L 76.167 43.500 L 76.500 43.167 L 76.667 43.167 L 77.000 42.833 L 77.000 42.667 L 79.167 40.500 L 79.167 40.333 L 79.500 40.000 L 79.667 40.000 L 79.833 39.833 L 79.833 39.667 L 80.667 38.833 L 80.833 38.833 L 81.000 38.667 L 81.000 38.500 L 81.500 38.000 L 81.667 38.000 L 82.000 37.667 L 82.000 37.500 L 83.167 36.333 L 83.167 36.167 L 84.000 35.333 L 84.000 35.167 L 84.167 35.000 L 84.167 34.833 L 85.000 34.000 L 85.000 33.833 L 85.167 33.667 L 85.167 33.500 L 85.500 33.167 L 85.500 33.000 L 85.667 32.833 L 85.667 32.667 L 86.000 32.333 L 86.000 32.167 L 86.167 32.000 L 86.167 31.833 L 86.333 31.667 L 86.333 31.500 L 86.667 31.167 L 86.667 31.000 L 86.833 30.833 L 86.833 30.500 L 87.167 30.167 L 87.167 29.833 L 87.333 29.667 L 87.333 29.500 L 87.500 29.333 L 87.500 29.167 L 87.667 29.000 L 87.667 28.667 L 87.833 28.500 L 87.833 28.167 L 88.000 28.000 L 88.000 27.667 L 88.167 27.500 L 88.167 27.000 L 88.333 26.833 L 88.333 26.500 L 88.500 26.333 L 88.500 26.167 L 88.667 26.000 L 88.667 25.833 Z M 86.500 19.833 L 86.333 20.000 L 86.167 20.000 L 86.000 20.167 L 85.833 20.167 L 85.333 20.667 L 85.333 20.833 L 85.167 21.000 L 85.167 21.167 L 85.000 21.333 L 85.000 24.667 L 84.833 24.833 L 84.833 25.500 L 84.667 25.667 L 84.667 26.167 L 84.500 26.333 L 84.500 26.500 L 84.333 26.667 L 84.333 27.167 L 84.000 27.500 L 84.000 27.667 L 83.833 27.833 L 83.833 28.167 L 83.500 28.500 L 83.500 28.667 L 83.333 28.833 L 83.333 29.000 L 83.167 29.167 L 83.167 29.333 L 82.833 29.667 L 82.833 30.000 L 82.167 30.667 L 82.167 30.833 L 82.000 31.000 L 82.000 31.167 L 81.667 31.500 L 81.667 31.667 L 81.167 32.167 L 81.167 32.333 L 80.667 32.833 L 80.667 33.000 L 79.667 34.000 L 79.667 34.167 L 79.167 34.667 L 79.000 34.667 L 78.833 34.833 L 78.833 35.000 L 77.667 36.167 L 77.667 36.333 L 76.500 37.500 L 76.500 37.667 L 73.500 40.667 L 73.500 40.833 L 72.333 42.000 L 72.333 42.167 L 70.500 44.000 L 70.500 44.167 L 69.667 45.000 L 69.667 45.167 L 68.667 46.167 L 68.667 46.333 L 67.833 47.167 L 67.833 47.333 L 67.500 47.667 L 67.500 47.833 L 66.833 48.500 L 66.833 48.667 L 66.667 48.833 L 66.667 49.000 L 66.500 49.167 L 66.500 49.333 L 65.833 50.000 L 65.833 50.167 L 65.667 50.333 L 65.667 50.500 L 65.500 50.667 L 65.500 50.833 L 65.167 51.167 L 65.167 51.333 L 64.833 51.667 L 64.833 51.833 L 64.667 52.000 L 64.667 52.167 L 64.500 52.333 L 64.500 52.500 L 64.333 52.667 L 64.333 52.833 L 64.167 53.000 L 64.167 53.167 L 63.833 53.500 L 63.833 53.667 L 63.667 53.833 L 63.667 54.167 L 63.500 54.333 L 63.500 54.500 L 63.333 54.667 L 63.333 54.833 L 63.167 55.000 L 63.167 55.167 L 63.000 55.333 L 63.000 55.500 L 62.833 55.667 L 62.833 56.000 L 62.667 56.167 L 62.667 56.500 L 62.500 56.667 L 62.500 57.000 L 62.333 57.167 L 62.333 57.333 L 62.167 57.500 L 62.167 57.667 L 62.000 57.833 L 62.000 58.333 L 61.833 58.500 L 61.833 59.333 L 61.667 59.500 L 61.667 59.833 L 61.500 60.000 L 61.500 60.167 L 61.333 60.333 L 61.333 60.500 L 61.167 60.667 L 61.167 60.833 L 61.000 61.000 L 61.000 61.500 L 60.833 61.667 L 60.833 63.500 L 60.667 63.667 L 60.667 65.167 L 60.500 65.333 L 60.500 69.333 L 60.667 69.500 L 60.667 70.833 L 60.833 71.000 L 60.833 72.500 L 61.000 72.667 L 61.000 73.333 L 61.167 73.500 L 61.167 73.833 L 61.333 74.000 L 61.333 74.333 L 61.500 74.500 L 61.500 74.667 L 61.667 74.833 L 61.667 75.333 L 61.833 75.500 L 61.833 76.167 L 62.000 76.333 L 62.000 76.500 L 62.167 76.667 L 62.167 77.000 L 62.333 77.167 L 62.333 77.333 L 62.500 77.500 L 62.500 77.833 L 62.667 78.000 L 62.667 78.333 L 62.833 78.500 L 62.833 78.667 L 63.000 78.833 L 63.000 79.167 L 63.167 79.333 L 63.167 79.500 L 63.333 79.667 L 63.333 79.833 L 63.500 80.000 L 63.500 80.167 L 63.667 80.333 L 63.667 80.500 L 63.833 80.667 L 63.833 80.833 L 64.000 81.000 L 64.000 81.167 L 64.333 81.500 L 64.333 81.667 L 64.500 81.833 L 64.500 82.000 L 64.667 82.167 L 64.667 82.333 L 65.000 82.667 L 65.000 82.833 L 65.667 83.500 L 65.667 83.667 L 65.833 83.833 L 65.833 84.000 L 66.667 84.833 L 66.667 85.000 L 67.000 85.333 L 67.167 85.333 L 67.500 85.667 L 67.500 85.833 L 69.167 87.500 L 69.333 87.500 L 69.500 87.667 L 69.500 87.833 L 69.667 88.000 L 69.833 88.000 L 70.333 88.500 L 70.500 88.500 L 71.333 89.333 L 71.500 89.333 L 72.000 89.833 L 72.167 89.833 L 72.667 90.333 L 72.833 90.333 L 73.000 90.500 L 73.167 90.500 L 73.500 90.833 L 73.667 90.833 L 73.833 91.000 L 74.000 91.000 L 74.167 91.167 L 74.333 91.167 L 74.500 91.333 L 74.667 91.333 L 74.833 91.500 L 75.000 91.500 L 75.167 91.667 L 75.333 91.667 L 75.500 91.833 L 75.667 91.833 L 75.833 92.000 L 76.000 92.000 L 76.167 92.167 L 76.333 92.167 L 76.500 92.333 L 76.833 92.333 L 77.000 92.500 L 77.167 92.500 L 77.500 92.833 L 77.833 92.833 L 78.000 93.000 L 78.333 93.000 L 78.500 93.167 L 78.833 93.167 L 79.000 93.333 L 79.167 93.333 L 79.333 93.500 L 79.500 93.500 L 79.667 93.667 L 80.167 93.667 L 80.333 93.833 L 80.667 93.833 L 80.833 94.000 L 81.167 94.000 L 81.333 94.167 L 81.500 94.167 L 81.667 94.333 L 82.167 94.333 L 82.333 94.500 L 82.667 94.500 L 82.833 94.667 L 83.167 94.667 L 83.333 94.833 L 83.667 94.833 L 83.833 95.000 L 84.333 95.000 L 84.500 95.167 L 85.167 95.167 L 85.333 95.333 L 85.833 95.333 L 86.000 95.500 L 86.500 95.500 L 86.667 95.667 L 87.333 95.667 L 87.500 95.833 L 88.167 95.833 L 88.333 96.000 L 90.000 96.000 L 90.167 96.167 L 95.000 96.167 L 95.167 96.000 L 96.500 96.000 L 96.667 95.833 L 97.333 95.833 L 97.500 95.667 L 98.000 95.667 L 98.167 95.500 L 98.500 95.500 L 98.667 95.333 L 99.333 95.333 L 99.500 95.167 L 100.167 95.167 L 100.333 95.000 L 101.167 95.000 L 101.333 94.833 L 101.667 94.833 L 101.833 94.667 L 102.167 94.667 L 102.333 94.500 L 102.667 94.500 L 102.833 94.333 L 103.500 94.333 L 103.667 94.167 L 104.000 94.167 L 104.167 94.000 L 104.500 94.000 L 104.667 93.833 L 105.000 93.833 L 105.167 93.667 L 105.333 93.667 L 105.667 93.333 L 106.000 93.333 L 106.167 93.167 L 106.500 93.167 L 106.667 93.000 L 107.000 93.000 L 107.167 92.833 L 107.333 92.833 L 107.500 92.667 L 107.667 92.667 L 107.833 92.500 L 108.000 92.500 L 108.167 92.333 L 108.333 92.333 L 108.500 92.167 L 108.667 92.167 L 108.833 92.000 L 109.167 92.000 L 109.333 91.833 L 109.500 91.833 L 109.667 91.667 L 109.833 91.667 L 110.000 91.500 L 110.167 91.500 L 110.500 91.167 L 110.667 91.167 L 110.833 91.000 L 111.000 91.000 L 111.333 90.667 L 111.500 90.667 L 112.000 90.167 L 112.167 90.167 L 112.833 89.500 L 113.000 89.500 L 113.833 88.667 L 114.000 88.667 L 115.667 87.000 L 115.833 87.000 L 116.000 86.833 L 116.000 86.667 L 118.000 84.667 L 118.000 84.500 L 118.667 83.833 L 118.667 83.667 L 119.167 83.167 L 119.167 83.000 L 119.333 82.833 L 119.333 82.667 L 119.833 82.167 L 119.833 82.000 L 120.000 81.833 L 120.000 81.667 L 120.167 81.500 L 120.167 81.333 L 120.500 81.000 L 120.500 80.833 L 120.833 80.500 L 120.833 80.333 L 121.000 80.167 L 121.000 79.833 L 121.167 79.667 L 121.167 79.333 L 121.333 79.167 L 121.333 78.833 L 121.500 78.667 L 121.500 78.500 L 121.667 78.333 L 121.667 78.167 L 121.833 78.000 L 121.833 77.667 L 122.000 77.500 L 122.000 76.833 L 122.167 76.667 L 122.167 76.333 L 122.333 76.167 L 122.333 75.667 L 122.500 75.500 L 122.500 75.333 L 122.667 75.167 L 122.667 74.667 L 122.833 74.500 L 122.833 73.500 L 123.000 73.333 L 123.000 71.167 L 123.167 71.000 L 123.167 65.833 L 123.000 65.667 L 123.000 62.833 L 122.833 62.667 L 122.833 62.000 L 122.667 61.833 L 122.667 61.500 L 122.500 61.333 L 122.500 61.167 L 122.333 61.000 L 122.333 60.667 L 122.167 60.500 L 122.167 59.667 L 122.000 59.500 L 122.000 58.667 L 121.833 58.500 L 121.833 58.167 L 121.667 58.000 L 121.667 57.667 L 121.500 57.500 L 121.500 57.333 L 121.333 57.167 L 121.333 56.833 L 121.167 56.667 L 121.167 56.333 L 121.000 56.167 L 121.000 55.667 L 120.833 55.500 L 120.833 55.333 L 120.500 55.000 L 120.500 54.833 L 120.333 54.667 L 120.333 54.500 L 120.167 54.333 L 120.167 54.167 L 120.000 54.000 L 120.000 53.667 L 119.667 53.333 L 119.667 53.167 L 119.500 53.000 L 119.500 52.833 L 119.333 52.667 L 119.333 52.500 L 119.167 52.333 L 119.167 52.167 L 119.000 52.000 L 119.000 51.833 L 118.500 51.333 L 118.500 51.167 L 118.333 51.000 L 118.333 50.833 L 118.167 50.667 L 118.167 50.500 L 117.833 50.167 L 117.833 50.000 L 117.500 49.667 L 117.500 49.500 L 117.167 49.167 L 117.167 49.000 L 116.833 48.667 L 116.833 48.500 L 116.667 48.500 L 116.500 48.333 L 116.500 48.167 L 116.333 48.000 L 116.333 47.833 L 115.833 47.333 L 115.833 47.167 L 115.333 46.667 L 115.333 46.500 L 114.000 45.167 L 114.000 45.000 L 113.833 44.833 L 113.667 44.833 L 113.333 44.500 L 113.167 44.500 L 113.000 44.333 L 112.833 44.333 L 112.667 44.167 L 112.000 44.167 L 111.667 44.500 L 111.500 44.500 L 110.833 45.167 L 110.833 45.333 L 110.500 45.667 L 110.500 45.833 L 110.333 46.000 L 110.333 46.167 L 109.833 46.667 L 109.833 47.000 L 109.667 47.167 L 109.667 47.500 L 109.500 47.667 L 109.500 48.000 L 109.167 48.333 L 109.167 48.500 L 109.000 48.667 L 109.000 48.833 L 108.833 49.000 L 108.833 49.333 L 108.500 49.667 L 108.500 49.833 L 108.333 50.000 L 108.333 50.167 L 108.000 50.500 L 107.833 50.500 L 107.667 50.667 L 107.333 50.667 L 107.000 50.333 L 107.000 46.500 L 106.833 46.333 L 106.833 45.500 L 106.667 45.333 L 106.667 44.667 L 106.500 44.500 L 106.500 43.667 L 106.333 43.500 L 106.333 42.833 L 106.167 42.667 L 106.167 42.333 L 106.000 42.167 L 106.000 41.667 L 105.833 41.500 L 105.833 41.333 L 105.667 41.167 L 105.667 41.000 L 105.500 40.833 L 105.500 40.500 L 105.333 40.333 L 105.333 39.833 L 105.167 39.667 L 105.167 39.333 L 105.000 39.167 L 105.000 38.833 L 104.667 38.500 L 104.667 38.333 L 104.500 38.167 L 104.500 38.000 L 104.333 37.833 L 104.333 37.500 L 104.167 37.333 L 104.167 37.000 L 104.000 36.833 L 104.000 36.667 L 103.833 36.500 L 103.833 36.333 L 103.500 36.000 L 103.500 35.833 L 103.333 35.667 L 103.333 35.500 L 103.167 35.333 L 103.167 35.167 L 103.000 35.000 L 103.000 34.833 L 102.833 34.667 L 102.833 34.500 L 102.333 34.000 L 102.333 33.833 L 102.167 33.667 L 102.167 33.500 L 102.000 33.333 L 102.000 33.167 L 101.833 33.000 L 101.833 32.833 L 101.167 32.167 L 101.167 32.000 L 101.000 31.833 L 101.000 31.667 L 100.833 31.500 L 100.833 31.333 L 100.500 31.000 L 100.500 30.833 L 100.000 30.333 L 100.000 30.167 L 99.833 30.000 L 99.833 29.833 L 98.833 28.833 L 98.833 28.667 L 98.667 28.500 L 98.500 28.500 L 98.333 28.333 L 98.333 28.167 L 97.333 27.167 L 97.333 27.000 L 96.833 26.500 L 96.667 26.500 L 96.333 26.167 L 96.333 26.000 L 96.000 25.667 L 95.833 25.667 L 94.833 24.667 L 94.667 24.667 L 93.833 23.833 L 93.667 23.833 L 93.333 23.500 L 93.167 23.500 L 92.500 22.833 L 92.333 22.833 L 92.000 22.500 L 91.833 22.500 L 91.333 22.000 L 91.167 22.000 L 91.000 21.833 L 90.833 21.833 L 90.500 21.500 L 90.333 21.500 L 90.000 21.167 L 89.833 21.167 L 89.500 20.833 L 89.333 20.833 L 89.000 20.500 L 88.833 20.500 L 88.667 20.333 L 88.500 20.333 L 88.167 20.000 L 87.833 20.000 L 87.667 19.833 Z"
        fill="#d0b89f"
        fill-rule="evenodd"
        clip-rule="evenodd"
        shape-rendering="geometricPrecision"/>
</svg>
